<svg width="207" height="68" viewBox="0 0 207 68" fill="none" xmlns="http://www.w3.org/2000/svg">
<path d="M37.3807 55.424V0H0V68L37.3807 55.424Z" fill="#FF0000"/>
<path d="M120.746 40.4708L120.73 40.1113L120.715 39.7837L120.683 39.4409L120.636 39.0976L120.588 38.7544L120.541 38.4106L120.477 38.0673L120.414 37.7078L120.335 37.3483L120.272 36.9883L120.177 36.6288L120.098 36.2693L119.987 35.926L119.893 35.566L119.782 35.239L119.655 34.8795L119.545 34.5362L119.418 34.1929L119.276 33.8659L119.134 33.5551L118.991 33.2447L118.833 32.9669L118.675 32.656L118.517 32.3782L118.327 32.0841L118.153 31.8057L117.964 31.5284L117.774 31.2662L117.569 31.0051L117.363 30.7434L117.158 30.4818L116.936 30.2364L116.699 29.9915L116.478 29.7623L116.241 29.5336L115.988 29.3049L115.75 29.092L115.498 28.8795L115.229 28.667L114.976 28.4546L114.707 28.2584L114.438 28.0621L114.154 27.8821L113.885 27.7026L113.6 27.5388L113.316 27.3589L113.016 27.1956L112.731 27.0485L112.431 26.9015L112.131 26.7707L111.83 26.6398L111.53 26.509L111.214 26.3782L110.898 26.2636L110.597 26.1657L110.281 26.0674L109.949 25.9857L109.633 25.9041L109.317 25.8225L109.001 25.7571L108.669 25.6917L108.352 25.6425L108.005 25.5608L107.657 25.4954L107.309 25.43L106.962 25.3646L106.614 25.3154L106.25 25.2667L105.902 25.2338L105.555 25.1846L105.191 25.1522L104.843 25.1359L104.479 25.1192L104.131 25.0867H103.784H103.42H103.294H103.072H102.725H102.361L102.013 25.1192L101.666 25.1359L101.302 25.1522L100.954 25.1846L100.59 25.2338L100.243 25.2667L99.895 25.3154L99.5471 25.3646L99.1992 25.43L98.8518 25.5116L98.5038 25.5771L98.1559 25.6587L97.808 25.7571L97.4606 25.8387L97.1126 25.9371L96.7809 26.0512L96.433 26.1495L96.1008 26.2803L95.7691 26.3944L95.4369 26.5253L95.1052 26.6561L94.773 26.8031L94.4408 26.9507L94.1249 27.0977L93.7932 27.2448L93.4767 27.4248L93.1607 27.588L92.8447 27.7513L92.5283 27.9313L92.228 28.1113L91.9273 28.3075L91.6113 28.487L91.311 28.6995L91.0265 28.8957L90.7263 29.1087L90.4889 29.3212L90.2358 29.5498L89.999 29.7785L89.7774 30.0077L89.5562 30.2531L89.3351 30.498L89.1139 30.7597L88.9081 31.0213L88.7026 31.2662L88.513 31.5446L88.3233 31.8057L88.1336 32.0841L87.9596 32.3782L87.7857 32.656L87.6274 32.9501L87.4697 33.2447L87.3272 33.5388L87.1694 33.8334L87.0427 34.1437L86.9164 34.4383L86.7901 34.7486L86.6795 35.0757L86.5685 35.3865L86.4579 35.6806L86.363 36.0077L86.2839 36.318L86.2048 36.6613L86.1257 36.9721L86.0628 37.2991L86.0151 37.6424L85.9522 37.9695L85.9045 38.3127L85.8574 38.656L85.8254 38.9993L85.794 39.3263L85.762 39.6858L85.7468 40.0291V40.3729V40.7162V41.0595V41.4027L85.7783 41.746L85.8097 42.0893L85.8254 42.4325L85.8731 42.7758L85.9203 43.1191L85.9837 43.4624L86.0466 43.8056L86.11 44.1327L86.1891 44.476L86.2682 44.803L86.363 45.1301L86.4579 45.4571L86.5685 45.8004L86.6795 46.1107L86.7901 46.4378L86.9164 46.7648L87.0427 47.0757L87.1852 47.386L87.3272 47.6968L87.4697 48.0076L87.6274 48.3179L87.7857 48.6125L87.9596 48.9066L88.1493 49.2007L88.3233 49.4953L88.513 49.7732L88.7026 50.051L88.9081 50.3289L89.0977 50.6068L89.3194 50.8684L89.5248 51.1463H98.5987V44.5744H103.294H120.382L120.462 44.2306L120.525 43.904L120.572 43.5607L120.62 43.217L120.667 42.8742L120.699 42.5309L120.73 42.1871L120.746 41.8439L120.762 41.5006V41.1573V40.814L120.746 40.4708ZM171.007 25.5116L170.723 25.43L170.438 25.3484L170.154 25.283L169.853 25.2338L169.569 25.1846L169.268 25.1684L168.968 25.1359H168.667H168.383H168.083L167.782 25.1684L167.497 25.2013L167.197 25.25L166.913 25.2992L166.66 25.3646L166.391 25.43L166.138 25.4954L165.885 25.5771L165.648 25.6754L165.395 25.7733L165.158 25.8717L164.905 25.9857L164.684 26.1166L164.447 26.2474L164.225 26.3782L164.004 26.5253L163.783 26.6723L163.561 26.8361L163.356 26.9994L163.15 27.1631L162.961 27.3589L162.771 27.5388L162.581 27.7351L162.392 27.9313L162.218 28.1276L162.06 28.34L161.886 28.5525L161.728 28.7654L161.743 25.7079H150.172V51.31H162.882V38.6068L162.897 38.2473L162.929 37.904L162.992 37.577L163.056 37.2662L163.15 36.9721L163.245 36.678L163.356 36.4164L163.483 36.1709L163.609 35.926L163.767 35.6968L163.925 35.4844L164.099 35.3044L164.289 35.1082L164.494 34.9449L164.7 34.7811L164.921 34.6341L165.158 34.487L165.395 34.3562L165.648 34.2254L165.917 34.1275L166.202 34.0291L166.502 33.9642L166.802 33.8988L167.118 33.8496L167.45 33.8167L167.782 33.7842H171.576V25.7079L171.292 25.5933L171.007 25.5116ZM145.581 25.5116L145.296 25.43L145.011 25.3484L144.727 25.283L144.427 25.2338L144.142 25.1846L143.842 25.1684L143.541 25.1359H143.241H142.956H142.656L142.356 25.1684L142.071 25.2013L141.771 25.25L141.486 25.2992L141.234 25.3646L140.965 25.43L140.712 25.4954L140.459 25.5771L140.222 25.6754L139.969 25.7733L139.732 25.8717L139.479 25.9857L139.258 26.1166L139.02 26.2474L138.799 26.3782L138.577 26.5253L138.356 26.6723L138.135 26.8361L137.929 26.9994L137.724 27.1631L137.534 27.3589L137.344 27.5388L137.155 27.7351L136.965 27.9313L136.791 28.1276L136.633 28.34L136.459 28.5525L136.301 28.7654L136.317 25.7079H124.745V51.31H137.455V38.6068L137.471 38.2473L137.503 37.904L137.566 37.577L137.629 37.2662L137.724 36.9721L137.819 36.678L137.929 36.4164L138.056 36.1709L138.182 35.926L138.341 35.6968L138.498 35.4844L138.672 35.3044L138.862 35.1082L139.068 34.9449L139.273 34.7811L139.494 34.6341L139.732 34.487L139.969 34.3562L140.222 34.2254L140.49 34.1275L140.775 34.0291L141.075 33.9642L141.376 33.8988L141.692 33.8496L142.024 33.8167L142.356 33.7842H146.15V25.7079L145.865 25.5933L145.581 25.5116ZM76.6886 13.822H64.0888V25.7079H59.0303V33.7842H64.0888V44.6068V44.983V45.375L64.1051 45.735L64.1365 46.0945L64.1685 46.4378L64.2156 46.7648L64.2947 47.0757L64.3581 47.386L64.4368 47.6806L64.5316 47.9584L64.6427 48.2363L64.7532 48.4979L64.8953 48.7428L65.022 48.9882L65.1798 49.2007L65.3537 49.4132L65.5277 49.6094L65.7016 49.8056L65.8913 50.0019L66.081 50.1819L66.2864 50.3451L66.5233 50.4922L66.7607 50.623L67.0294 50.7214L67.314 50.8192L67.5985 50.9176L67.883 50.983L68.1995 51.0484L68.5312 51.0809L68.8634 51.1301L69.1951 51.1625L69.543 51.1792L69.9067 51.1955H76.6886V33.7842H83.9286V25.7079H76.6886V13.822ZM206.921 33.2939L206.858 32.9015L206.778 32.5415L206.684 32.1982L206.589 31.8549L206.478 31.5284L206.352 31.2008L206.209 30.8905L206.067 30.5964L205.909 30.318L205.751 30.0401L205.577 29.7785L205.387 29.5336L205.182 29.3049L204.961 29.0757L204.739 28.8633L204.518 28.6508L204.281 28.4379L204.044 28.2421L203.791 28.0621L203.538 27.8821L203.269 27.7026L203 27.5388L202.732 27.3756L202.447 27.2285L202.163 27.0815L201.862 26.9507L201.562 26.8031L201.261 26.6723L200.961 26.542L200.629 26.4274L200.313 26.329L199.981 26.2149L199.649 26.1166L199.317 26.0187L198.969 25.9203L198.621 25.8387L198.274 25.7571L197.91 25.6754L197.562 25.61L197.183 25.5446L196.819 25.4792L196.456 25.4138L196.076 25.3484L195.697 25.2992L195.301 25.25L194.922 25.2176L194.527 25.1684L194.132 25.1522L193.721 25.1192L193.357 25.103L192.978 25.0867L192.583 25.0705H192.156H191.745L191.302 25.0538L190.891 25.0705H190.465L190.053 25.0867L189.642 25.1192L189.215 25.1522L188.773 25.1846L188.362 25.2176L187.982 25.25L187.603 25.2992L187.224 25.3484L186.844 25.4138L186.481 25.4792L186.117 25.5446L185.753 25.61L185.39 25.6754L185.042 25.7571L184.694 25.8387L184.346 25.9371L184.014 26.0349L183.683 26.1328L183.35 26.2474L183.034 26.362L182.702 26.4766L182.402 26.5907L182.086 26.7215L181.786 26.8523L181.485 26.9994L181.185 27.1302L180.9 27.2772L180.616 27.4248L180.347 27.588L180.078 27.7513L179.809 27.9313L179.557 28.0951L179.288 28.2746L179.035 28.4708L178.798 28.6508L178.561 28.8633L178.323 29.0757L178.102 29.272L177.881 29.4844L177.659 29.6969L177.438 29.9261L177.233 30.1548L177.027 30.3834L176.838 30.6288L176.648 30.8905L176.458 31.1359L176.284 31.397L176.11 31.6754L175.936 31.9365L175.794 32.2311L175.636 32.5252L175.509 32.8198L175.383 33.1464L175.257 33.4572L175.146 33.8005L175.035 34.1275L174.94 34.4708L174.861 34.8303L174.798 35.2065L174.751 35.4844L174.735 35.6806L174.703 36.3347H186.686L186.702 35.7785L186.734 35.599L186.812 35.3536L186.923 35.0265L187.065 34.7324L187.255 34.4708L187.461 34.2416L187.682 34.0459L187.951 33.8659L188.235 33.7026L188.536 33.588L188.852 33.4734L189.2 33.3756L189.563 33.2939L189.943 33.2447L190.353 33.2285L190.765 33.2118L191.176 33.2285L191.571 33.261L191.95 33.3102L192.298 33.3918L192.646 33.4897L192.962 33.588L193.262 33.7351L193.547 33.8821L193.8 34.0783L194.021 34.2908L194.179 34.5687L194.306 34.8795L194.385 35.239L194.401 35.6152L194.369 35.9914L194.274 36.318L194.1 36.5964L193.895 36.8088L193.626 36.9721L193.341 37.1359L193.025 37.2499L192.709 37.3646L192.361 37.4462L192.013 37.5278L191.65 37.61L191.286 37.6754L190.923 37.7403L189.421 37.9857L187.919 38.1981L186.386 38.3944L184.915 38.656L184.536 38.7052L184.157 38.7706L183.793 38.836L183.43 38.9014L183.066 38.9668L182.702 39.0485L182.355 39.1301L182.007 39.2117L181.659 39.2939L181.327 39.3918L180.979 39.4896L180.647 39.588L180.315 39.6858L179.983 39.8004L179.652 39.8988L179.335 40.0129L179.019 40.1275L178.703 40.2583L178.402 40.3729L178.102 40.5199L177.802 40.6508L177.502 40.7978L177.217 40.9286L176.933 41.0919L176.664 41.2557L176.395 41.4352L176.142 41.5989L175.889 41.7952L175.652 41.9914L175.431 42.2034L175.209 42.4325L175.004 42.6617L174.814 42.9066L174.609 43.1521L174.435 43.397L174.261 43.6753L174.118 43.9694L173.976 44.2635L173.85 44.5906L173.739 44.9176L173.644 45.2609L173.565 45.6204L173.486 45.9966L173.423 46.3724L173.376 46.7486L173.344 47.1411V47.5006L173.376 47.8601L173.423 48.2201L173.502 48.5633L173.597 48.9066L173.723 49.2174L173.866 49.5115L174.04 49.7894L174.214 50.051L174.419 50.2635L174.656 50.4922L174.877 50.6884L175.13 50.8846L175.399 51.0484L175.7 51.1792L176.031 51.2609L176.395 51.2933L176.774 51.31H188.536L187.935 50.9176L187.84 50.7868L187.682 50.6068L187.492 50.3781L187.303 50.1327L187.145 49.8548L187.003 49.544L186.891 49.2174L186.829 48.8412L186.812 48.465L186.876 48.1055L186.971 47.7622L187.097 47.4681L187.255 47.1897L187.461 46.9448L187.666 46.7324L187.903 46.5194L188.156 46.3399L188.441 46.1761L188.725 46.0453L189.041 45.9145L189.342 45.8004L190.654 45.3425L191.95 44.9176L192.267 44.803L192.598 44.6884L192.93 44.5906L193.246 44.476L193.563 44.3614L193.8 44.2797L193.974 44.2306L194.148 44.1819L194.527 43.9694V51.31H207V34.5362V34.1113L206.968 33.6859L206.921 33.2939ZM53.5599 13.89H42.7321V51.31H53.5599V13.89ZM103.294 38.0186H98.2984L98.2827 37.5445L98.3456 37.1029L98.4247 36.678L98.551 36.2693L98.6935 35.8931L98.8675 35.5498L99.0729 35.2227L99.2945 34.9287L99.5471 34.6341L99.8159 34.3729L100.116 34.1437L100.416 33.9313L100.733 33.7513L101.065 33.588L101.412 33.441L101.76 33.3264L102.124 33.2285L102.503 33.1631L102.867 33.1301L103.246 33.0977H103.294L103.61 33.1139L103.989 33.1464L104.353 33.1955L104.716 33.2772L105.08 33.3918L105.428 33.5226L105.76 33.6696L106.076 33.8659L106.392 34.0621L106.677 34.2908L106.945 34.5524L107.198 34.847L107.435 35.1573L107.641 35.4844L107.815 35.8277L107.973 36.2201L108.083 36.6288L108.179 37.0704L108.242 37.5278L108.289 38.0186H103.294Z" fill="#034899"/>
<path d="M24.3798 28.7925C24.3798 28.7925 22.7473 28.7925 19.5939 28.7925C16.442 28.7925 11.8248 32.0524 11.8248 39.7363C11.8248 46.0253 15.4288 48.3537 19.0318 48.3537C21.0579 48.3537 24.3798 44.7439 24.3798 40.435V28.7925ZM35.1319 50.682H24.3798V47.7721C22.5783 49.5189 18.6922 51.9624 14.4155 51.9624C10.1363 51.9624 2.02994 48.8196 2.02994 39.6212C2.02994 30.4232 12.3879 25.882 18.3561 25.882C24.3243 25.882 24.3798 25.882 24.3798 25.882C24.3798 22.5035 24.3798 21.6897 24.3798 19.3603C24.3798 17.0319 22.7473 14.9373 19.8195 14.9373C16.8912 14.9373 13.2886 16.9158 13.2886 22.0396H4.7327C4.7327 18.6621 6.98387 12.0253 19.9321 12.0253C32.8802 12.0253 34.2311 18.0795 34.2311 20.7588C34.2311 23.4365 34.2311 45.6764 34.2311 46.9572C34.2311 49.1685 35.1319 50.682 35.1319 50.682Z" fill="#FEFEFE"/>
</svg>
