<svg width="204" height="84" viewBox="0 0 204 84" fill="none" xmlns="http://www.w3.org/2000/svg">
<path d="M126.991 83.4103L133.174 83.1967C133.174 83.1967 140.021 79.3715 138.002 67.3633C138.002 67.3633 136.569 61.3052 133.441 59.0723H126.991V83.4103Z" fill="#323230"/>
<path d="M133.878 71.2425C133.878 77.9602 130.797 83.4103 126.991 83.4103C123.191 83.4103 120.103 77.9602 120.103 71.2425C120.103 64.5206 123.191 59.0723 126.991 59.0723C130.797 59.0723 133.878 64.5206 133.878 71.2425Z" fill="#22231F"/>
<path d="M45.4126 83.9098L50.7878 83.6875C50.7878 83.6875 57.0581 80.1856 55.21 69.1844C55.21 69.1844 53.8965 63.6357 51.0304 61.5925H45.1219L45.4126 83.9098Z" fill="#323230"/>
<path d="M51.4315 72.7399C51.4315 78.891 48.6085 83.8873 45.1219 83.8873C41.6413 83.8873 38.8146 78.891 38.8146 72.7399C38.8146 66.5829 41.6413 61.5925 45.1219 61.5925C48.6085 61.5925 51.4315 66.5829 51.4315 72.7399Z" fill="#22231F"/>
<path d="M187.035 83.4765L192.241 83.2752C192.241 83.2752 198.153 79.9704 196.412 69.6C196.412 69.6 195.176 64.3712 192.472 62.4426H186.903L187.035 83.4765Z" fill="#323230"/>
<path d="M192.853 72.9498C192.853 78.7551 190.19 83.459 186.903 83.459C183.623 83.459 180.956 78.7551 180.956 72.9498C180.956 67.148 183.623 62.4426 186.903 62.4426C190.19 62.4426 192.853 67.148 192.853 72.9498Z" fill="#22231F"/>
<path d="M135.507 72.5741H180.116V63.9163H135.507V72.5741Z" fill="#353535"/>
<path d="M135.43 63.9417H184.093V0.151489H135.43V63.9417Z" fill="#E6E6E6"/>
<path d="M162.377 12.1458H203.245V9.15271H162.377V12.1458Z" fill="#FFD805"/>
<path d="M162.377 16.3863H203.245V12.1459H162.377V16.3863Z" fill="#FDEE4A"/>
<path d="M162.274 23.1189H203.204V16.3868H162.274V23.1189Z" fill="#FFD805"/>
<path d="M162.414 48.8108H203.201V28.109H162.414V48.8108Z" fill="#03BCE8"/>
<path d="M161.938 63.5254H203.269V48.8105H161.938V63.5254Z" fill="#FFD805"/>
<path d="M185.95 9.69369L186.087 0.00674392C186.087 0.00674392 203.05 -0.599882 203.18 9.69369H185.95Z" fill="#5FA0FF"/>
<path d="M145.08 0.421723L188.625 0.0906982L187.289 9.65074L150.88 9.48521L145.08 0.421723Z" fill="#5FA0FF"/>
<path d="M145.185 63.9566H162.414V9.15271H145.185V63.9566Z" fill="#D8B007"/>
<path d="M145.185 10.1502L145.08 0.42155C145.08 0.42155 162.284 -0.143685 162.414 10.1502H145.185Z" fill="#D8B007"/>
<path d="M145.185 16.301H162.443V12.1459H145.185V16.301Z" fill="#EDC107"/>
<path d="M162.414 48.8105L172.052 63.6509L193.568 63.8982L203.269 48.8105H162.414Z" fill="#363836"/>
<path d="M162.479 28.297L180.491 48.6874L190.17 48.8108L171.537 28.2332L162.479 28.297Z" fill="#2FCFEA"/>
<path d="M176.479 28.297L194.492 48.6874H198.818L180.597 28.3566L176.479 28.297Z" fill="#2FCFEA"/>
<path d="M145.217 28.2734H203.227V25.0323H145.217V28.2734Z" fill="#352F33"/>
<path d="M145.19 25.0323H203.175V23.1182H145.19V25.0323Z" fill="#363836"/>
<path d="M162.414 28.2972H162.478V28.2734H162.414V28.2972Z" fill="#03A9D0"/>
<path d="M162.414 28.2969H145.19V25.0323H145.217V28.2734H162.414V28.2969Z" fill="#C29E06"/>
<path d="M162.479 28.2734H145.217V25.0323H162.479V28.2734Z" fill="#302A2E"/>
<path d="M162.479 25.0325H145.19V23.119H162.479V25.0325Z" fill="#303230"/>
<path d="M162.377 52.3024H203.245V48.6873H162.377V52.3024Z" fill="#D8B007"/>
<path d="M162.414 67.3512H203.865V63.526H162.414V67.3512Z" fill="#FFD805"/>
<path d="M161.965 75.3338H203.864V71.5076H161.965V75.3338Z" fill="#5FA0FF"/>
<path d="M161.928 71.5082H203.794V67.3513H161.928V71.5082Z" fill="#363836"/>
<path d="M169.753 55.8322H196.038V54.9644H169.753V55.8322Z" fill="#CDE0CD"/>
<path d="M169.753 57.4347H196.038V56.5682H169.753V57.4347Z" fill="#CDE0CD"/>
<path d="M169.753 59.0365H196.038V58.1704H169.753V59.0365Z" fill="#CDE0CD"/>
<path d="M161.938 67.3277H171.882V63.526H161.938V67.3277Z" fill="#DAE0DE"/>
<path d="M194.058 67.3277H204V63.526H194.058V67.3277Z" fill="#DAE0DE"/>
<path d="M148.685 64.2985H158.566V28.1493H148.685V64.2985Z" fill="#363836"/>
<path d="M148.685 63.942H149.645V28.1095H148.685V63.942Z" fill="#352F33"/>
<path d="M157.741 63.942H158.701V28.1095H157.741V63.942Z" fill="#352F33"/>
<path d="M150.741 48.4364H156.302V30.3553H150.741V48.4364Z" fill="#03BCE8"/>
<path d="M150.793 37.0878L156.303 48.4365L156.32 44.1126L150.757 32.7622L150.793 37.0878Z" fill="#2FCFEA"/>
<path d="M150.741 31.3512L156.303 41.5771V38.0212L152.261 30.3553H150.741V31.3512Z" fill="#2FCFEA"/>
<path d="M0.0430908 59.8174H135.43V0.151123H0.0430908V59.8174Z" fill="#CCCCCC"/>
<path d="M0.0430908 23.4512H135.231V0.151489H0.0430908V23.4512Z" fill="#E6E6E6"/>
<path d="M161.965 73.0336H203.814V71.5079H161.965V73.0336Z" fill="#5FA0FF"/>
<path d="M0.00494385 61.6715H135.533V59.7062H0.00494385V61.6715Z" fill="#CCD6D3"/>
<path d="M0 63.9996H135.521V59.6968H0V63.9996Z" fill="#2F302B"/>
<path d="M142.139 75.5543L145.44 75.8464C145.44 75.8464 147.716 65.3035 150.942 63.7653L148.347 61.6417C148.347 61.6417 140.332 64.9364 142.139 75.5543Z" fill="#131314"/>
<path d="M149.383 83.6112L154.739 83.4113C154.739 83.4113 160.908 80.239 159.091 70.2687C159.091 70.2687 157.797 65.2436 154.98 63.3894H149.174L149.383 83.6112Z" fill="#323230"/>
<path d="M155.375 73.4933C155.375 79.0679 152.601 83.5933 149.174 83.5933C145.746 83.5933 142.965 79.0679 142.965 73.4933C142.965 67.9103 145.746 63.3894 149.174 63.3894C152.601 63.3894 155.375 67.9103 155.375 73.4933Z" fill="#22231F"/>
<path d="M153.691 73.2973C153.691 69.4244 151.614 66.283 149.051 66.283C146.488 66.283 144.411 69.4244 144.411 73.2973C144.411 77.1768 146.488 80.3183 149.051 80.3183C151.614 80.3183 153.691 77.1768 153.691 73.2973Z" fill="#ECF0F1"/>
<path d="M148.575 79.3353C146.593 79.0758 145.027 76.4807 145.027 73.3295C145.027 70.1957 146.569 67.6167 148.53 67.326C149.277 67.4393 149.963 67.8881 150.528 68.5698C151.438 69.6736 152.029 71.3932 152.029 73.3295C152.029 75.2622 151.438 76.979 150.528 78.0856C149.962 78.7673 149.272 79.2175 148.523 79.3279C148.54 79.3307 148.557 79.3325 148.575 79.3353ZM148.203 69.3812C146.858 69.3812 145.765 71.1323 145.765 73.2905C145.765 75.4452 146.858 77.195 148.203 77.195C149.547 77.195 150.639 75.4452 150.639 73.2905C150.639 71.1323 149.547 69.3812 148.203 69.3812Z" fill="#BABDBE"/>
<path d="M148.203 77.1948C146.858 77.1948 145.765 75.4451 145.765 73.2903C145.765 71.1321 146.858 69.381 148.203 69.381C149.547 69.381 150.639 71.1321 150.639 73.2903C150.639 75.4451 149.547 77.1948 148.203 77.1948Z" fill="#939596"/>
<path d="M148.901 79.3557C148.791 79.3557 148.683 79.3498 148.575 79.335C148.683 79.3487 148.791 79.3557 148.901 79.3557C149.798 79.3557 150.621 78.8813 151.278 78.0853C152.188 76.9787 152.781 75.262 152.781 73.3292C152.781 75.262 152.188 76.9787 151.278 78.0853C150.621 78.8813 149.798 79.3557 148.901 79.3557ZM148.53 67.3258C148.528 67.3244 148.525 67.3244 148.523 67.3244C148.647 67.3061 148.774 67.2974 148.901 67.2974C148.776 67.2974 148.652 67.3079 148.53 67.3258Z" fill="#BABDBE"/>
<path d="M148.901 79.3557C148.791 79.3557 148.683 79.3487 148.575 79.335C148.557 79.3322 148.54 79.3305 148.523 79.3277C149.273 79.2172 149.962 78.767 150.528 78.0853C151.438 76.9787 152.029 75.262 152.029 73.3292C152.029 71.3929 151.438 69.6734 150.528 68.5695C149.963 67.8879 149.277 67.439 148.53 67.3258C148.652 67.3079 148.776 67.2974 148.901 67.2974C149.798 67.2974 150.621 67.7746 151.278 68.5695C152.188 69.6734 152.781 71.3929 152.781 73.3292C152.781 75.262 152.188 76.9787 151.278 78.0853C150.621 78.8813 149.798 79.3557 148.901 79.3557Z" fill="#939596"/>
<path d="M149.63 73.389C149.63 71.9629 148.911 70.8086 148.023 70.8086C147.131 70.8086 146.409 71.9629 146.409 73.389C146.409 74.8161 147.131 75.9733 148.023 75.9733C148.911 75.9733 149.63 74.8161 149.63 73.389Z" fill="#E2E2E2"/>
<path d="M155.261 76.1389L160.529 76.2851C160.529 76.2851 161.312 61.788 154.005 60.9826L147.955 60.7634C147.955 60.7634 156.205 65.0108 155.261 76.1389Z" fill="#49595A"/>
<path d="M142.139 75.5547C142.139 75.5547 142.293 61.7154 149.212 62.8876C149.212 62.8876 155.261 63.6197 154.241 76.2125L155.261 76.1392C155.261 76.1392 156.438 61.0575 148.427 60.8366C148.427 60.8366 140.884 60.3983 141.197 75.5547H142.139Z" fill="#424F4F"/>
<path d="M0.00494385 67.2408H109.221V60.5245H0.00494385V67.2408Z" fill="#2F302B"/>
<path d="M0.00494385 67.1888H135.444V63.2545H0.00494385V67.1888Z" fill="#22231F"/>
<path d="M87.7922 75.4185L91.2815 75.7303C91.2815 75.7303 93.6897 64.5804 97.0973 62.9545L94.3542 60.7083C94.3542 60.7083 85.8804 64.194 87.7922 75.4185Z" fill="#131314"/>
<path d="M95.4501 83.938L101.114 83.7291C101.114 83.7291 107.641 80.3702 105.718 69.8298C105.718 69.8298 104.35 64.5161 101.372 62.5577H95.2287L95.4501 83.938Z" fill="#323230"/>
<path d="M101.788 73.2395C101.788 79.1338 98.8531 83.9184 95.2286 83.9184C91.603 83.9184 88.6655 79.1338 88.6655 73.2395C88.6655 67.3374 91.603 62.5577 95.2286 62.5577C98.8531 62.5577 101.788 67.3374 101.788 73.2395Z" fill="#22231F"/>
<path d="M100.006 73.0339C100.006 68.9383 97.8079 65.6139 95.0996 65.6139C92.3895 65.6139 90.1906 68.9383 90.1906 73.0339C90.1906 77.134 92.3895 80.4585 95.0996 80.4585C97.8079 80.4585 100.006 77.134 100.006 73.0339Z" fill="#ECF0F1"/>
<path d="M94.9321 79.4397C94.9306 79.4397 94.9306 79.4397 94.9295 79.4397C94.9306 79.4397 94.9306 79.4397 94.9321 79.4397ZM94.5454 79.4095C92.4686 79.0964 90.8434 76.3715 90.8434 73.0639C90.8434 69.7601 92.466 67.0338 94.5419 66.7186C95.3359 66.8385 96.0635 67.3122 96.663 68.0314C97.6233 69.2022 98.25 71.02 98.25 73.0639C98.25 75.1099 97.6233 76.928 96.663 78.0957C96.0644 78.8177 95.3382 79.2903 94.5454 79.4095ZM94.2021 68.8933C92.7798 68.8933 91.6263 70.7426 91.6263 73.025C91.6263 75.3052 92.7798 77.1545 94.2021 77.1545C95.6242 77.1545 96.7813 75.3052 96.7813 73.025C96.7813 70.7426 95.6242 68.8933 94.2021 68.8933ZM94.9173 66.6874C94.9185 66.6874 94.9185 66.6874 94.9185 66.6874C94.9185 66.6874 94.9185 66.6874 94.9173 66.6874ZM94.9283 66.6874C94.9295 66.6874 94.9306 66.6874 94.9321 66.6874C94.9306 66.6874 94.9295 66.6874 94.9283 66.6874Z" fill="#BABDBE"/>
<path d="M94.2021 77.1543C92.7798 77.1543 91.6263 75.305 91.6263 73.0247C91.6263 70.7424 92.7798 68.8931 94.2021 68.8931C95.6242 68.8931 96.7814 70.7424 96.7814 73.0247C96.7814 75.305 95.6242 77.1543 94.2021 77.1543Z" fill="#939596"/>
<path d="M94.9442 79.4397C94.9407 79.4397 94.9355 79.4397 94.932 79.4397C94.9355 79.4397 94.9407 79.4397 94.9442 79.4397C95.8901 79.4397 96.7613 78.9369 97.4534 78.0957C98.4173 76.928 99.0442 75.1099 99.0442 73.0639C99.0442 75.1099 98.4173 76.928 97.4534 78.0957C96.7613 78.9369 95.8901 79.4397 94.9442 79.4397ZM94.9294 79.4397C94.7992 79.4379 94.6686 79.4292 94.5404 79.4095C94.5419 79.4095 94.5442 79.4095 94.5453 79.4095C94.6724 79.4292 94.8001 79.4379 94.9294 79.4397ZM94.5419 66.7186C94.5404 66.7186 94.5404 66.7186 94.5404 66.7186C94.6637 66.6997 94.7902 66.6891 94.9173 66.6874C94.7902 66.6891 94.6646 66.6997 94.5419 66.7186ZM94.9184 66.6874C94.9208 66.6874 94.9248 66.6874 94.9283 66.6874C94.9248 66.6874 94.9208 66.6874 94.9184 66.6874ZM94.932 66.6874C94.9355 66.6874 94.9407 66.6874 94.9442 66.6874C94.9407 66.6874 94.9355 66.6874 94.932 66.6874Z" fill="#BABDBE"/>
<path d="M94.9441 79.4397C94.9406 79.4397 94.9354 79.4397 94.932 79.4397C94.9305 79.4397 94.9305 79.4397 94.9294 79.4397C94.8 79.4379 94.6723 79.4292 94.5453 79.4095C95.338 79.2903 96.0643 78.8177 96.6628 78.0957C97.6232 76.928 98.2499 75.1099 98.2499 73.0639C98.2499 71.02 97.6232 69.2022 96.6628 68.0314C96.0634 67.3122 95.3358 66.8385 94.5418 66.7186C94.6645 66.6997 94.7901 66.6891 94.9172 66.6874C94.9184 66.6874 94.9184 66.6874 94.9184 66.6874C94.9207 66.6874 94.9247 66.6874 94.9282 66.6874C94.9294 66.6874 94.9305 66.6874 94.932 66.6874C94.9354 66.6874 94.9406 66.6874 94.9441 66.6874C95.89 66.6874 96.7613 67.1916 97.4533 68.0314C98.4172 69.2022 99.0441 71.02 99.0441 73.0639C99.0441 75.1099 98.4172 76.928 97.4533 78.0957C96.7613 78.9369 95.89 79.4397 94.9441 79.4397Z" fill="#939596"/>
<path d="M95.7138 73.1306C95.7138 71.626 94.9505 70.3998 94.011 70.3998C93.0692 70.3998 92.3047 71.626 92.3047 73.1306C92.3047 74.6401 93.0692 75.8632 94.011 75.8632C94.9505 75.8632 95.7138 74.6401 95.7138 73.1306Z" fill="#E2E2E2"/>
<path d="M101.665 76.0376L107.233 76.1926C107.233 76.1926 108.067 60.863 100.337 60.0127L93.9398 59.782C93.9398 59.782 102.665 64.2709 101.665 76.0376Z" fill="#49595A"/>
<path d="M87.7922 75.4185C87.7922 75.4185 87.9575 60.7857 95.2695 62.0238C95.2695 62.0238 101.665 62.8008 100.587 76.1149L101.665 76.0377C101.665 76.0377 102.912 60.0907 94.4382 59.8582C94.4382 59.8582 86.4616 59.3929 86.7939 75.4185H87.7922Z" fill="#424F4F"/>
<path d="M106.186 75.4185L109.678 75.7303C109.678 75.7303 112.085 64.5804 115.493 62.9545L112.749 60.7083C112.749 60.7083 104.277 64.194 106.186 75.4185Z" fill="#131314"/>
<path d="M113.844 83.938L119.506 83.7291C119.506 83.7291 126.035 80.3702 124.114 69.8298C124.114 69.8298 122.745 64.5161 119.766 62.5577H113.624L113.844 83.938Z" fill="#323230"/>
<path d="M120.184 73.2395C120.184 79.1338 117.249 83.9184 113.624 83.9184C109.999 83.9184 107.06 79.1338 107.06 73.2395C107.06 67.3374 109.999 62.5577 113.624 62.5577C117.249 62.5577 120.184 67.3374 120.184 73.2395Z" fill="#22231F"/>
<path d="M118.4 73.0339C118.4 68.9383 116.204 65.6139 113.497 65.6139C110.782 65.6139 108.586 68.9383 108.586 73.0339C108.586 77.134 110.782 80.4585 113.497 80.4585C116.204 80.4585 118.4 77.134 118.4 73.0339Z" fill="#ECF0F1"/>
<path d="M113.325 79.4397H113.324H113.325ZM112.94 79.4095C110.864 79.0982 109.238 76.3715 109.238 73.0639C109.238 69.7601 110.862 67.0338 112.936 66.7186C113.731 66.8385 114.459 67.3122 115.057 68.0314C116.018 69.2022 116.645 71.02 116.645 73.0639C116.645 75.1099 116.018 76.928 115.057 78.0957C114.461 78.8177 113.733 79.2903 112.94 79.4095ZM112.596 68.8933C111.176 68.8933 110.021 70.7426 110.021 73.025C110.021 75.3052 111.176 77.1545 112.596 77.1545C114.017 77.1545 115.176 75.3052 115.176 73.025C115.176 70.7426 114.017 68.8933 112.596 68.8933ZM113.322 66.6874C113.323 66.6874 113.324 66.6874 113.325 66.6874C113.324 66.6874 113.323 66.6874 113.322 66.6874Z" fill="#BABDBE"/>
<path d="M112.596 77.1543C111.176 77.1543 110.021 75.305 110.021 73.0247C110.021 70.7424 111.176 68.8931 112.596 68.8931C114.017 68.8931 115.176 70.7424 115.176 73.0247C115.176 75.305 114.017 77.1543 112.596 77.1543Z" fill="#939596"/>
<path d="M113.339 79.4397C113.334 79.4397 113.33 79.4397 113.325 79.4397C113.33 79.4397 113.334 79.4397 113.339 79.4397C114.284 79.4397 115.156 78.9369 115.849 78.0957C116.813 76.928 117.44 75.1099 117.44 73.0639C117.44 75.1099 116.813 76.928 115.849 78.0957C115.156 78.9369 114.284 79.4397 113.339 79.4397ZM113.324 79.4397C113.193 79.4379 113.064 79.4292 112.935 79.4095C112.938 79.4095 112.939 79.4095 112.94 79.4095C113.067 79.4292 113.195 79.4379 113.324 79.4397ZM112.936 66.7186H112.935C113.061 66.6997 113.185 66.6891 113.312 66.6874C113.185 66.6891 113.059 66.6997 112.936 66.7186ZM113.312 66.6874C113.316 66.6874 113.319 66.6874 113.322 66.6874C113.319 66.6874 113.316 66.6874 113.312 66.6874ZM113.325 66.6874C113.33 66.6874 113.334 66.6874 113.339 66.6874C113.334 66.6874 113.33 66.6874 113.325 66.6874Z" fill="#BABDBE"/>
<path d="M113.339 79.4397C113.334 79.4397 113.33 79.4397 113.325 79.4397H113.324C113.195 79.4379 113.067 79.4292 112.94 79.4095C113.733 79.2903 114.461 78.8177 115.057 78.0957C116.018 76.928 116.645 75.1099 116.645 73.0639C116.645 71.02 116.018 69.2022 115.057 68.0314C114.459 67.3122 113.731 66.8385 112.936 66.7186C113.059 66.6997 113.185 66.6891 113.312 66.6874C113.316 66.6874 113.319 66.6874 113.322 66.6874C113.323 66.6874 113.324 66.6874 113.325 66.6874C113.33 66.6874 113.334 66.6874 113.339 66.6874C114.284 66.6874 115.156 67.1916 115.849 68.0314C116.813 69.2022 117.44 71.02 117.44 73.0639C117.44 75.1099 116.813 76.928 115.849 78.0957C115.156 78.9369 114.284 79.4397 113.339 79.4397Z" fill="#939596"/>
<path d="M114.109 73.1306C114.109 71.626 113.344 70.3998 112.407 70.3998C111.464 70.3998 110.699 71.626 110.699 73.1306C110.699 74.6401 111.464 75.8632 112.407 75.8632C113.344 75.8632 114.109 74.6401 114.109 73.1306Z" fill="#E2E2E2"/>
<path d="M120.061 76.0376L125.627 76.1926C125.627 76.1926 126.461 60.863 118.731 60.0127L112.336 59.782C112.336 59.782 121.059 64.2709 120.061 76.0376Z" fill="#49595A"/>
<path d="M106.186 75.4185C106.186 75.4185 106.353 60.7857 113.664 62.0238C113.664 62.0238 120.061 62.8008 118.983 76.1149L120.061 76.0377C120.061 76.0377 121.307 60.0907 112.833 59.8582C112.833 59.8582 104.858 59.3929 105.189 75.4185H106.186Z" fill="#424F4F"/>
<path d="M6.16805 74.7997L9.65733 75.1072C9.65733 75.1072 12.0667 63.9599 15.4731 62.3325L12.7301 60.088C12.7301 60.088 4.25887 63.5703 6.16805 74.7997Z" fill="#131314"/>
<path d="M13.8237 83.3161L19.4869 83.1057C19.4869 83.1057 26.0154 79.7514 24.0926 69.2096C24.0926 69.2096 22.7273 63.8941 19.7466 61.9358H13.6054L13.8237 83.3161Z" fill="#323230"/>
<path d="M20.1625 72.6179C20.1625 78.5133 17.229 83.2968 13.6054 83.2968C9.98125 83.2968 7.04108 78.5133 7.04108 72.6179C7.04108 66.7176 9.98125 61.9358 13.6054 61.9358C17.229 61.9358 20.1625 66.7176 20.1625 72.6179Z" fill="#22231F"/>
<path d="M18.3825 72.4147C18.3825 68.3164 16.1862 64.9933 13.4752 64.9933C10.764 64.9933 8.56537 68.3164 8.56537 72.4147C8.56537 76.5117 10.764 79.8361 13.4752 79.8361C16.1862 79.8361 18.3825 76.5117 18.3825 72.4147Z" fill="#ECF0F1"/>
<path d="M13.3189 78.8209C11.0572 78.8209 9.21918 75.9586 9.21918 72.4447C9.21918 68.9249 11.0572 66.0654 13.3189 66.0654C14.268 66.0654 15.1372 66.5728 15.8292 67.4109C16.7931 68.5831 17.4186 70.3998 17.4186 72.4447C17.4186 70.3998 16.7931 68.5831 15.8292 67.4109C15.1372 66.5728 14.268 66.0654 13.3189 66.0654C13.186 66.0654 13.0477 66.0773 12.92 66.097C13.7102 66.2179 14.4393 66.6892 15.0373 67.4109C16.0003 68.5831 16.6255 70.3998 16.6255 72.4447C16.6255 74.4883 16.0003 76.306 15.0373 77.4737C14.4393 78.196 13.7102 78.6715 12.92 78.7879C13.0477 78.809 13.186 78.8209 13.3189 78.8209ZM12.5788 68.2717C11.1556 68.2717 10.0007 70.121 10.0007 72.4044C10.0007 74.6836 11.1556 76.5343 12.5788 76.5343C13.9994 76.5343 15.1569 74.6836 15.1569 72.4044C15.1569 70.121 13.9994 68.2717 12.5788 68.2717Z" fill="#BABDBE"/>
<path d="M12.5786 76.5342C11.1554 76.5342 10.0005 74.6835 10.0005 72.4043C10.0005 70.1209 11.1554 68.2716 12.5786 68.2716C13.9992 68.2716 15.1567 70.1209 15.1567 72.4043C15.1567 74.6835 13.9992 76.5342 12.5786 76.5342Z" fill="#939596"/>
<path d="M13.3188 78.8209C13.1859 78.8209 13.0476 78.809 12.9199 78.7879C13.7101 78.6715 14.4392 78.196 15.0372 77.4737C16.0002 76.306 16.6254 74.4883 16.6254 72.4447C16.6254 70.3998 16.0002 68.5831 15.0372 67.4109C14.4392 66.6892 13.7101 66.2179 12.9199 66.097C13.0476 66.0773 13.1859 66.0654 13.3188 66.0654C14.2679 66.0654 15.1371 66.5728 15.8291 67.4109C16.793 68.5831 17.4185 70.3998 17.4185 72.4447C17.4185 74.4883 16.793 76.306 15.8291 77.4737C15.1371 78.3163 14.2679 78.8209 13.3188 78.8209Z" fill="#939596"/>
<path d="M14.0882 72.5087C14.0882 71.0009 13.325 69.7778 12.3869 69.7778C11.4462 69.7778 10.6791 71.0009 10.6791 72.5087C10.6791 74.0164 11.4462 75.2395 12.3869 75.2395C13.325 75.2395 14.0882 74.0164 14.0882 72.5087Z" fill="#E2E2E2"/>
<path d="M20.0421 75.4171L25.6093 75.571C25.6093 75.571 26.4417 60.2428 18.7112 59.3911L12.3168 59.1604C12.3168 59.1604 21.0392 63.6494 20.0421 75.4171Z" fill="#49595A"/>
<path d="M6.1681 74.7997C6.1681 74.7997 6.33337 60.1668 13.6439 61.4032C13.6439 61.4032 20.0421 62.1803 18.9625 75.4932L20.0421 75.4172C20.0421 75.4172 21.2905 59.469 12.8129 59.2376C12.8129 59.2376 4.83984 58.7723 5.16865 74.7997H6.1681Z" fill="#424F4F"/>
<path d="M24.5629 74.7997L28.0519 75.1072C28.0519 75.1072 30.4627 63.9599 33.8691 62.3325L31.1226 60.088C31.1226 60.088 22.65 63.5703 24.5629 74.7997Z" fill="#131314"/>
<path d="M32.2194 83.3161L37.8853 83.1057C37.8853 83.1057 44.4103 79.7514 42.4886 69.2096C42.4886 69.2096 41.1207 63.8941 38.1426 61.9358H31.998L32.2194 83.3161Z" fill="#323230"/>
<path d="M38.5584 72.6179C38.5584 78.5133 35.6249 83.2968 31.9979 83.2968C28.3757 83.2968 25.4359 78.5133 25.4359 72.6179C25.4359 66.7176 28.3757 61.9358 31.9979 61.9358C35.6249 61.9358 38.5584 66.7176 38.5584 72.6179Z" fill="#22231F"/>
<path d="M36.7757 72.4147C36.7757 68.3164 34.582 64.9933 31.871 64.9933C29.1613 64.9933 26.9597 68.3164 26.9597 72.4147C26.9597 76.5117 29.1613 79.8361 31.871 79.8361C34.582 79.8361 36.7757 76.5117 36.7757 72.4147Z" fill="#ECF0F1"/>
<path d="M31.7148 78.8209C29.4545 78.8209 27.6148 75.9586 27.6148 72.4447C27.6148 68.9249 29.4545 66.0654 31.7148 66.0654C32.6613 66.0654 33.5305 66.5728 34.2252 67.4109C35.1913 68.5831 35.8142 70.3998 35.8142 72.4447C35.8142 70.3998 35.1913 68.5831 34.2252 67.4109C33.5305 66.5728 32.6613 66.0654 31.7148 66.0654C31.5805 66.0654 31.4436 66.0773 31.3133 66.097C32.105 66.2179 32.8335 66.6892 33.4306 67.4109C34.3951 68.5831 35.0191 70.3998 35.0191 72.4447C35.0191 74.4883 34.3951 76.306 33.4306 77.4737C32.8335 78.196 32.105 78.6715 31.3133 78.7879C31.4436 78.809 31.5805 78.8209 31.7148 78.8209ZM30.9721 68.2717C29.5503 68.2717 28.3954 70.121 28.3954 72.4044C28.3954 74.6836 29.5503 76.5343 30.9721 76.5343C32.3941 76.5343 33.5516 74.6836 33.5516 72.4044C33.5516 70.121 32.3941 68.2717 30.9721 68.2717Z" fill="#BABDBE"/>
<path d="M30.9721 76.5342C29.5503 76.5342 28.3954 74.6835 28.3954 72.4043C28.3954 70.1209 29.5503 68.2716 30.9721 68.2716C32.3941 68.2716 33.5516 70.1209 33.5516 72.4043C33.5516 74.6835 32.3941 76.5342 30.9721 76.5342Z" fill="#939596"/>
<path d="M31.7149 78.8209C31.5806 78.8209 31.4437 78.809 31.3134 78.7879C32.105 78.6715 32.8336 78.196 33.4307 77.4737C34.3952 76.306 35.0192 74.4883 35.0192 72.4447C35.0192 70.3998 34.3952 68.5831 33.4307 67.4109C32.8336 66.6892 32.105 66.2179 31.3134 66.097C31.4437 66.0773 31.5806 66.0654 31.7149 66.0654C32.6614 66.0654 33.5306 66.5728 34.2253 67.4109C35.1914 68.5831 35.8143 70.3998 35.8143 72.4447C35.8143 74.4883 35.1914 76.306 34.2253 77.4737C33.5306 78.3163 32.6614 78.8209 31.7149 78.8209Z" fill="#939596"/>
<path d="M32.4854 72.5087C32.4854 71.0009 31.7206 69.7778 30.784 69.7778C29.8384 69.7778 29.0737 71.0009 29.0737 72.5087C29.0737 74.0164 29.8384 75.2395 30.784 75.2395C31.7206 75.2395 32.4854 74.0164 32.4854 72.5087Z" fill="#E2E2E2"/>
<path d="M38.438 75.4171L44.0041 75.571C44.0041 75.571 44.8374 60.2428 37.1083 59.3911L30.7087 59.1604C30.7087 59.1604 39.4326 63.6494 38.438 75.4171Z" fill="#49595A"/>
<path d="M24.5629 74.7997C24.5629 74.7997 24.7276 60.1668 32.0384 61.4032C32.0384 61.4032 38.4381 62.1803 37.3584 75.4932L38.4381 75.4172C38.4381 75.4172 39.685 59.469 31.2097 59.2376C31.2097 59.2376 23.2332 58.7723 23.5646 74.7997H24.5629Z" fill="#424F4F"/>
<path d="M0 60.6067H135.521V56.9197H0V60.6067Z" fill="#22231F"/>
<path d="M46.6985 36.7365V18.5331H36.2415V40.8672L46.6985 36.7365Z" fill="#FF0000"/>
<path d="M70.0194 31.8252L70.0151 31.7071L70.0108 31.5994L70.0018 31.4869L69.9885 31.3739L69.9755 31.2614L69.9621 31.1485L69.9445 31.0359L69.9268 30.9178L69.9045 30.7996L69.8869 30.6814L69.8602 30.5632L69.8382 30.4451L69.8073 30.3325L69.7806 30.2144L69.7497 30.1067L69.7144 29.9885L69.6834 29.876L69.6481 29.7631L69.6084 29.6558L69.5685 29.5537L69.5288 29.4517L69.4846 29.3605L69.4403 29.2585L69.396 29.167L69.343 29.0706L69.2944 28.9794L69.2411 28.8879L69.1882 28.802L69.1305 28.716L69.0733 28.6301L69.0156 28.5442L68.9537 28.4639L68.8874 28.3833L68.8255 28.3079L68.7592 28.2328L68.6883 28.1578L68.622 28.088L68.5514 28.0183L68.4761 27.9482L68.4055 27.8784L68.3302 27.8142L68.255 27.7497L68.1754 27.6904L68.1004 27.6315L68.0205 27.5778L67.9409 27.5186L67.857 27.465L67.7774 27.4166L67.6935 27.3685L67.6095 27.3254L67.5253 27.2826L67.4414 27.2395L67.3528 27.1967L67.2645 27.1588L67.1805 27.1269L67.092 27.0946L66.9991 27.0677L66.9108 27.0406L66.8222 27.014L66.7339 26.9926L66.641 26.9709L66.5525 26.9551L66.4552 26.9281L66.3579 26.9067L66.2607 26.885L66.1634 26.8636L66.0659 26.8475L65.9643 26.8313L65.8671 26.8208L65.7698 26.8047L65.6679 26.7938L65.5707 26.7886L65.4691 26.7829L65.3718 26.7724H65.2743H65.1727H65.1374H65.0754H64.9782H64.8763L64.779 26.7829L64.6818 26.7886L64.5802 26.7938L64.4829 26.8047L64.381 26.8208L64.2838 26.8313L64.1865 26.8475L64.0893 26.8636L63.992 26.885L63.8948 26.912L63.7972 26.9334L63.7 26.9603L63.6027 26.9926L63.5055 27.0193L63.4082 27.0515L63.3153 27.0891L63.2181 27.1213L63.1251 27.1644L63.0322 27.202L62.9393 27.2447L62.8467 27.2879L62.7538 27.3363L62.6609 27.3847L62.5723 27.4327L62.4794 27.4811L62.3911 27.5403L62.3025 27.594L62.2142 27.6476L62.1257 27.7065L62.0417 27.7658L61.9578 27.8303L61.8692 27.8892L61.7853 27.959L61.7057 28.0235L61.6215 28.0933L61.5552 28.1631L61.4846 28.2381L61.4183 28.3135L61.3563 28.3885L61.2944 28.4692L61.2324 28.5498L61.1705 28.6357L61.1129 28.7213L61.0556 28.802L61.0024 28.8935L60.9494 28.9794L60.8964 29.0706L60.8478 29.167L60.7992 29.2585L60.7549 29.3549L60.7106 29.4517L60.6707 29.5485L60.6266 29.6449L60.5911 29.747L60.5557 29.8437L60.5204 29.9458L60.4894 30.0531L60.4585 30.1551L60.4275 30.2519L60.4012 30.3592L60.3789 30.4612L60.3569 30.5741L60.3346 30.6762L60.3169 30.7835L60.3036 30.896L60.286 31.0037L60.273 31.1162L60.2596 31.2291L60.2506 31.342L60.242 31.4493L60.233 31.5675L60.2287 31.6801V31.793V31.9055V32.0184V32.1314L60.2373 32.2439L60.2463 32.3568L60.2506 32.4694L60.264 32.5823L60.2773 32.6948L60.2949 32.8078L60.3126 32.9206L60.3302 33.0279L60.3523 33.1405L60.3745 33.2481L60.4012 33.3555L60.4275 33.4627L60.4585 33.5756L60.4894 33.6777L60.5204 33.785L60.5557 33.8923L60.5911 33.9943L60.631 34.0964L60.6707 34.1984L60.7106 34.3004L60.7549 34.4025L60.7992 34.4992L60.8478 34.5957L60.9007 34.6925L60.9494 34.7892L61.0024 34.8804L61.0556 34.9716L61.1129 35.0627L61.1662 35.1543L61.2281 35.2402L61.2854 35.3313H63.8239V33.1728H65.1374H69.9178L69.9398 33.0602L69.9575 32.9526L69.9708 32.84L69.9841 32.7271L69.9974 32.6145L70.0064 32.5016L70.0151 32.3887L70.0194 32.2762L70.0241 32.1633V32.0507V31.9378L70.0194 31.8252ZM84.0798 26.912L84.0002 26.885L83.9206 26.8583L83.841 26.8369L83.7571 26.8208L83.6775 26.8047L83.5933 26.7991L83.5093 26.7886H83.4254H83.3458H83.2619L83.1776 26.7991L83.098 26.8099L83.0141 26.8261L82.9345 26.8422L82.8636 26.8636L82.7886 26.885L82.7177 26.9067L82.6471 26.9334L82.5808 26.9656L82.5099 26.9979L82.4436 27.0301L82.373 27.0677L82.311 27.1108L82.2447 27.1536L82.1828 27.1967L82.1209 27.2447L82.0589 27.2931L81.997 27.3468L81.9394 27.4004L81.8821 27.4544L81.8288 27.5186L81.7758 27.5778L81.7229 27.6424L81.6696 27.7065L81.621 27.771L81.5767 27.8408L81.5281 27.9106L81.4841 27.9804L81.4884 26.9765H78.2513V35.385H81.8068V31.213L81.8112 31.0948L81.8201 30.9819L81.8378 30.8746L81.8554 30.7726L81.8821 30.6762L81.9084 30.5794L81.9394 30.4935L81.975 30.4128L82.0103 30.3325L82.0546 30.2571L82.0986 30.1874L82.1472 30.1285L82.2005 30.0639L82.2578 30.0103L82.3154 29.9566L82.3773 29.9082L82.4436 29.8599L82.5099 29.8171L82.5808 29.7739L82.6558 29.7417L82.7354 29.7094L82.8196 29.688L82.9035 29.6667L82.9921 29.6505L83.0847 29.6396L83.1776 29.6291H84.239V26.9765L84.1594 26.939L84.0798 26.912ZM76.967 26.912L76.8874 26.885L76.8078 26.8583L76.7282 26.8369L76.644 26.8208L76.5644 26.8047L76.4805 26.7991L76.3965 26.7886H76.3123H76.233H76.1488L76.0648 26.7991L75.9852 26.8099L75.9013 26.8261L75.8217 26.8422L75.7508 26.8636L75.6755 26.885L75.6049 26.9067L75.534 26.9334L75.4677 26.9656L75.397 26.9979L75.3308 27.0301L75.2598 27.0677L75.1979 27.1108L75.1316 27.1536L75.0697 27.1967L75.0077 27.2447L74.9458 27.2931L74.8842 27.3468L74.8265 27.4004L74.7689 27.4544L74.716 27.5186L74.663 27.5778L74.6097 27.6424L74.5568 27.7065L74.5082 27.771L74.4639 27.8408L74.4152 27.9106L74.371 27.9804L74.3753 26.9765H71.1384V35.385H74.694V31.213L74.6983 31.0948L74.707 30.9819L74.7247 30.8746L74.7426 30.7726L74.7689 30.6762L74.7956 30.5794L74.8265 30.4935L74.8619 30.4128L74.8972 30.3325L74.9414 30.2571L74.9857 30.1874L75.0344 30.1285L75.0873 30.0639L75.1449 30.0103L75.2025 29.9566L75.2642 29.9082L75.3308 29.8599L75.397 29.8171L75.4677 29.7739L75.5429 29.7417L75.6225 29.7094L75.7065 29.688L75.7907 29.6667L75.879 29.6505L75.9719 29.6396L76.0648 29.6291H77.1262V26.9765L77.0466 26.939L76.967 26.912ZM57.6946 23.0724H54.17V26.9765H52.7549V29.6291H54.17V33.1836V33.307V33.4361L54.1743 33.5539L54.1833 33.6721L54.192 33.785L54.2053 33.8923L54.2276 33.9943L54.2452 34.0964L54.2672 34.1931L54.2939 34.2843L54.3248 34.3755L54.3558 34.4617L54.3955 34.542L54.4308 34.6227L54.4751 34.6925L54.5237 34.7622L54.5726 34.8268L54.6212 34.8913L54.6742 34.9555L54.7272 35.0147L54.7848 35.0684L54.851 35.1167L54.9173 35.1595L54.9926 35.1918L55.0722 35.2241L55.1518 35.2563L55.2314 35.2777L55.32 35.2991L55.4126 35.3099L55.5055 35.3261L55.5984 35.3366L55.6956 35.3422L55.7975 35.3475H57.6946V29.6291H59.7201V26.9765H57.6946V23.0724ZM94.1265 29.4678L94.1088 29.3392L94.0868 29.221L94.0602 29.1081L94.0336 28.9955L94.0026 28.8879L93.9673 28.7806L93.9276 28.6785L93.8877 28.5817L93.8434 28.4906L93.7994 28.3994L93.7508 28.3135L93.6975 28.2328L93.6402 28.1578L93.5783 28.0824L93.5163 28.0127L93.4544 27.9429L93.3881 27.8731L93.3218 27.8086L93.2509 27.7497L93.1803 27.6904L93.105 27.6315L93.0298 27.5778L92.9545 27.5242L92.8749 27.4758L92.7953 27.4274L92.7114 27.3847L92.6274 27.3363L92.5432 27.2931L92.4593 27.2504L92.3664 27.2125L92.2781 27.1806L92.1852 27.1427L92.0923 27.1108L91.9993 27.0785L91.9021 27.0463L91.8048 27.0193L91.7076 26.9926L91.6057 26.9656L91.5084 26.9442L91.4025 26.9229L91.3006 26.9011L91.199 26.8797L91.0928 26.8583L90.9866 26.8422L90.876 26.8261L90.7701 26.8152L90.6595 26.7991L90.5489 26.7938L90.434 26.7829L90.3321 26.7777L90.2262 26.7724L90.1156 26.7668H89.9961H89.8812L89.7573 26.7615L89.6424 26.7668H89.5229L89.408 26.7724L89.293 26.7829L89.1735 26.7938L89.0496 26.8047L88.9347 26.8152L88.8288 26.8261L88.7225 26.8422L88.6163 26.8583L88.5101 26.8797L88.4085 26.9011L88.3069 26.9229L88.205 26.9442L88.1034 26.9656L88.0062 26.9926L87.9089 27.0193L87.8114 27.0515L87.7187 27.0838L87.6258 27.1161L87.5329 27.1536L87.4444 27.1911L87.3517 27.2286L87.2675 27.2665L87.1792 27.3092L87.095 27.3524L87.011 27.4004L86.9271 27.4435L86.8475 27.4919L86.7679 27.5403L86.6926 27.594L86.6174 27.6476L86.5421 27.7065L86.4715 27.7602L86.3963 27.8194L86.3256 27.884L86.2594 27.9429L86.1928 28.0127L86.1265 28.0824L86.0645 28.147L86.0029 28.2167L85.941 28.2865L85.879 28.3619L85.8214 28.4369L85.7638 28.512L85.7109 28.5926L85.6579 28.6785L85.6046 28.7592L85.556 28.8451L85.5074 28.9363L85.4587 29.0222L85.4191 29.1189L85.3748 29.2154L85.3395 29.3121L85.3039 29.4195L85.2686 29.5215L85.2376 29.6344L85.2066 29.7417L85.1803 29.8546L85.158 29.9728L85.1404 30.0962L85.127 30.1874L85.1227 30.2519L85.114 30.4665H88.4661L88.4704 30.2841L88.4794 30.2249L88.5014 30.1442L88.5324 30.0369L88.572 29.9405L88.6253 29.8546L88.6826 29.7792L88.7445 29.7147L88.8198 29.6558L88.8994 29.6021L88.9833 29.5646L89.0719 29.5271L89.1692 29.4948L89.2708 29.4678L89.377 29.4517L89.4919 29.4464L89.6071 29.4412L89.722 29.4464L89.8326 29.457L89.9385 29.4731L90.036 29.5001L90.1333 29.5324L90.2216 29.5646L90.3058 29.613L90.3854 29.661L90.456 29.7256L90.518 29.7953L90.5623 29.8865L90.5976 29.9885L90.6196 30.1067L90.6242 30.2305L90.6152 30.3539L90.5886 30.4612L90.54 30.5524L90.4827 30.6222L90.4074 30.6762L90.3278 30.7298L90.2392 30.7673L90.151 30.8049L90.0537 30.8318L89.9564 30.8585L89.8546 30.8855L89.753 30.9069L89.6511 30.9283L89.2311 31.0089L88.8108 31.0787L88.3819 31.1432L87.9706 31.2291L87.8646 31.2453L87.7584 31.2667L87.6568 31.2881L87.5549 31.3098L87.4533 31.3312L87.3517 31.3578L87.2542 31.3848L87.1569 31.4115L87.0597 31.4384L86.9668 31.4707L86.8695 31.503L86.7766 31.5353L86.6837 31.5675L86.5911 31.605L86.4982 31.6373L86.4096 31.6748L86.3213 31.7123L86.2327 31.7554L86.1488 31.793L86.0645 31.841L85.9806 31.8842L85.8967 31.9325L85.8171 31.9753L85.7375 32.0293L85.6622 32.083L85.587 32.1419L85.5164 32.1955L85.4454 32.26L85.3792 32.3246L85.3172 32.3943L85.2553 32.4694L85.198 32.5448L85.1447 32.6251L85.0874 32.7057L85.0388 32.7863L84.9902 32.8775L84.9502 32.9743L84.9106 33.0707L84.8749 33.178L84.8443 33.2857L84.8176 33.3982L84.7953 33.5164L84.7733 33.6398L84.7557 33.7636L84.7424 33.887L84.7337 34.0157V34.1339L84.7424 34.252L84.7557 34.3702L84.7777 34.4831L84.8043 34.5957L84.8396 34.6977L84.8796 34.7945L84.9282 34.8857L84.9768 34.9716L85.0344 35.0413L85.1007 35.1167L85.1627 35.1809L85.2333 35.2454L85.3085 35.2991L85.3925 35.3422L85.4854 35.3689L85.587 35.3797L85.6932 35.385H88.9833L88.8154 35.2563L88.7888 35.2132L88.7445 35.1543L88.6916 35.0789L88.6386 34.9986L88.5943 34.9071L88.5544 34.805L88.5234 34.6977L88.5058 34.5743L88.5014 34.4509L88.5191 34.3327L88.5457 34.2198L88.581 34.1234L88.6253 34.0319L88.6826 33.9516L88.7402 33.8818L88.8065 33.8116L88.8774 33.7527L88.957 33.6991L89.0366 33.6559L89.1249 33.6132L89.2088 33.5756L89.5761 33.4252L89.9385 33.2857L90.0271 33.2481L90.12 33.2103L90.2129 33.178L90.3012 33.1405L90.3898 33.103L90.456 33.0764L90.5047 33.0602L90.5533 33.0441L90.6595 32.9743V35.385H94.1488V29.876V29.7364L94.1398 29.5969L94.1265 29.4678ZM51.2246 23.0949H48.1956V35.385H51.2246V23.0949ZM65.1374 31.0198H63.7399L63.7356 30.8641L63.7533 30.7189L63.7752 30.5794L63.8105 30.4451L63.8505 30.3217L63.8991 30.2088L63.9564 30.1014L64.0187 30.0047L64.0893 29.9082L64.1646 29.8223L64.2485 29.747L64.3324 29.6772L64.421 29.6183L64.5139 29.5646L64.6112 29.5162L64.7084 29.4787L64.81 29.4464L64.9162 29.425L65.0178 29.4142L65.124 29.4033H65.1374L65.2256 29.4089L65.3319 29.4195L65.4338 29.4356L65.5353 29.4626L65.6369 29.5001L65.7342 29.5429L65.8271 29.5913L65.9157 29.6558L66.004 29.7203L66.0839 29.7953L66.1588 29.8813L66.2297 29.978L66.296 30.0801L66.3536 30.1874L66.4022 30.3003L66.4462 30.429L66.4772 30.5632L66.5038 30.7084L66.5215 30.8585L66.5348 31.0198H65.1374Z" fill="#034899"/>
<path d="M43.0613 27.9898C43.0613 27.9898 42.6048 27.9898 41.7226 27.9898C40.841 27.9898 39.5492 29.0607 39.5492 31.5843C39.5492 33.6499 40.5573 34.4143 41.5654 34.4143C42.1322 34.4143 43.0613 33.2288 43.0613 31.8136V27.9898ZM46.0692 35.1795H43.0613V34.2236C42.5574 34.7973 41.4705 35.5999 40.2739 35.5999C39.0768 35.5999 36.8093 34.5676 36.8093 31.5464C36.8093 28.5256 39.7069 27.0339 41.3764 27.0339C43.0459 27.0339 43.0613 27.0339 43.0613 27.0339C43.0613 25.9245 43.0613 25.6569 43.0613 24.8918C43.0613 24.1274 42.6049 23.4391 41.7857 23.4391C40.9666 23.4391 39.9587 24.0892 39.9587 25.772H37.5653C37.5653 24.6625 38.1951 22.4829 41.8173 22.4829C45.4394 22.4829 45.8171 24.4711 45.8171 25.3512C45.8171 26.2306 45.8171 33.5353 45.8171 33.956C45.8171 34.6822 46.0692 35.1795 46.0692 35.1795Z" fill="#FEFEFE"/>
</svg>
