<svg width="72" height="32" viewBox="0 0 72 32" fill="none" xmlns="http://www.w3.org/2000/svg">
<path d="M37.0465 27.063H39.1129V22.8229H37.0465V27.063Z" fill="#22231F"/>
<path d="M2.58258 24.5182H51.8097V21.9735H2.58258V24.5182Z" fill="#22231F"/>
<path d="M67.0955 7.04541L70.4877 14.6958C70.8164 15.4371 70.9862 16.239 70.9862 17.0499V23.7059H53.643V5.604H64.8794C65.8382 5.604 66.7069 6.16901 67.0955 7.04541Z" fill="url(#paint0_linear)" stroke="black" stroke-width="0.0762" stroke-miterlimit="22.9256"/>
<path d="M54.2503 23.7058H54.471V6.54187H65.0801C65.5287 6.54187 65.9377 6.80615 66.1222 7.21505L69.9436 15.6848V23.7058H70.1644V15.6374L66.3233 7.12416C66.1034 6.63626 65.6153 6.32117 65.0801 6.32117H54.2503V23.7058Z" fill="black" stroke="black" stroke-width="0.0762" stroke-miterlimit="22.9256"/>
<path d="M2.5827 22.8229H52.7601V0H2.5827V22.8229Z" fill="#A5B6C6"/>
<path d="M3 1H52V0H3V1Z" fill="#8CA3B1"/>
<path d="M3 5.23891H52.1477V4H3V5.23891Z" fill="#8CA3B1"/>
<path d="M3 9.60402H52.1477V8.36523H3V9.60402Z" fill="#8CA3B1"/>
<path d="M3 13.9691H52.1477V12.7303H3V13.9691Z" fill="#8CA3B1"/>
<path d="M3 18.3343H52.1477V17.0955H3V18.3343Z" fill="#8CA3B1"/>
<path d="M54.9674 10.7766V6.92847H64.8795C65.3139 6.92847 65.7085 7.18527 65.8848 7.58237L68.8881 14.3556H58.5464L54.9674 10.7766Z" fill="#03BCE8"/>
<path d="M63.2536 7.19995L66.1809 14.0841H65.5505L62.6693 7.19995H63.2536Z" fill="#2FCFEA"/>
<path d="M60.8756 7.19995L63.7182 14.0841H61.848L59.0868 7.19995H60.8756Z" fill="#2FCFEA"/>
<path d="M46.6903 27.063H71.0384C71.556 27.063 71.9756 26.6435 71.9756 26.1259V23.7059H46.6903V27.063Z" fill="#22231F"/>
<path d="M44.7741 26.3916H0V24.3773H44.7741V26.3916Z" fill="#22231F"/>
<path d="M59.2266 16.7672H61.562C61.764 16.7672 61.9278 16.6034 61.9278 16.4015V16.053H58.8609V16.4015C58.8609 16.6034 59.0246 16.7672 59.2266 16.7672Z" fill="#999999"/>
<path d="M59.2266 16.582H61.562C61.764 16.582 61.9278 16.4183 61.9278 16.2163V15.8678H58.8609V16.2163C58.8609 16.4183 59.0246 16.582 59.2266 16.582Z" fill="black"/>
<path d="M69.6779 22.1958H70.9862V18.6741H69.6779C69.1903 18.6741 68.795 19.0694 68.795 19.5571V21.3128C68.795 21.8005 69.1903 22.1958 69.6779 22.1958Z" fill="#C4CAEF"/>
<path d="M7.30969 27.063H9.37609V22.8229H7.30969V27.063Z" fill="#22231F"/>
<path d="M60.1993 21.9735C63.0102 21.9735 65.2889 24.2522 65.2889 27.063H55.1097C55.1097 24.2522 57.3884 21.9735 60.1993 21.9735Z" fill="#49595A"/>
<path d="M56.0863 27.063C56.0863 29.3346 57.9278 31.176 60.1993 31.176C62.4708 31.176 64.3123 29.3346 64.3123 27.063C64.3123 24.7915 62.4708 22.9501 60.1993 22.9501C57.9278 22.9501 56.0863 24.7915 56.0863 27.063Z" fill="#22231F"/>
<path d="M57.5172 27.063C57.5172 28.5443 58.718 29.7451 60.1993 29.7451C61.6805 29.7451 62.8813 28.5443 62.8813 27.063C62.8813 25.5818 61.6805 24.381 60.1993 24.381C58.718 24.381 57.5172 25.5818 57.5172 27.063Z" fill="#939596"/>
<path d="M57.8029 27.0631C57.8029 28.3867 58.8758 29.4595 60.1993 29.4595C61.5227 29.4595 62.5957 28.3867 62.5957 27.0631C62.5957 25.7397 61.5227 24.6667 60.1993 24.6667C58.8758 24.6667 57.8029 25.7397 57.8029 27.0631Z" fill="#D8E8EF"/>
<path d="M60.1164 26.4608L59.7661 25.1295H60.6325L60.2822 26.4608C60.2598 26.546 60.1388 26.546 60.1164 26.4608Z" fill="#939596"/>
<path d="M60.5665 26.5786L61.2602 25.3895L61.8729 26.0021L60.6838 26.6959C60.6077 26.7402 60.5221 26.6547 60.5665 26.5786Z" fill="#939596"/>
<path d="M60.8015 26.9801L62.1329 26.6298V27.4963L60.8015 27.1459C60.7163 27.1235 60.7163 27.0026 60.8015 26.9801Z" fill="#939596"/>
<path d="M60.6838 27.4303L61.8729 28.124L61.2602 28.7367L60.5665 27.5475C60.5221 27.4714 60.6077 27.3859 60.6838 27.4303Z" fill="#939596"/>
<path d="M60.2822 27.6653L60.6325 28.9966H59.7661L60.1164 27.6653C60.1388 27.5801 60.2598 27.5801 60.2822 27.6653Z" fill="#939596"/>
<path d="M59.8321 27.5475L59.1384 28.7367L58.5258 28.124L59.7149 27.4303C59.791 27.3859 59.8766 27.4714 59.8321 27.5475Z" fill="#939596"/>
<path d="M59.597 27.1459L58.2656 27.4963V26.6298L59.597 26.9801C59.6822 27.0026 59.6822 27.1235 59.597 27.1459Z" fill="#939596"/>
<path d="M59.7149 26.6959L58.5258 26.0021L59.1384 25.3895L59.8321 26.5786C59.8766 26.6547 59.791 26.7402 59.7149 26.6959Z" fill="#939596"/>
<path d="M59.9905 27.0631C59.9905 27.1785 60.0839 27.272 60.1993 27.272C60.3146 27.272 60.4081 27.1785 60.4081 27.0631C60.4081 26.9478 60.3146 26.8542 60.1993 26.8542C60.0839 26.8542 59.9905 26.9478 59.9905 27.0631Z" fill="url(#paint1_linear)"/>
<path d="M17.338 21.9735C20.1489 21.9735 22.4276 24.2522 22.4276 27.063H12.2483C12.2483 24.2522 14.527 21.9735 17.338 21.9735Z" fill="#49595A"/>
<path d="M13.225 27.063C13.225 29.3346 15.0664 31.176 17.3379 31.176C19.6095 31.176 21.4509 29.3346 21.4509 27.063C21.4509 24.7915 19.6095 22.9501 17.3379 22.9501C15.0664 22.9501 13.225 24.7915 13.225 27.063Z" fill="#22231F"/>
<path d="M14.6559 27.063C14.6559 28.5443 15.8567 29.7451 17.3379 29.7451C18.8192 29.7451 20.02 28.5443 20.02 27.063C20.02 25.5818 18.8192 24.381 17.3379 24.381C15.8567 24.381 14.6559 25.5818 14.6559 27.063Z" fill="#808080"/>
<path d="M14.9416 27.0631C14.9416 28.3867 16.0145 29.4595 17.3379 29.4595C18.6614 29.4595 19.7343 28.3867 19.7343 27.0631C19.7343 25.7397 18.6614 24.6667 17.3379 24.6667C16.0145 24.6667 14.9416 25.7397 14.9416 27.0631Z" fill="#D8E8EF"/>
<path d="M17.2551 26.4608L16.9047 25.1295H17.7712L17.4208 26.4608C17.3984 26.546 17.2775 26.546 17.2551 26.4608Z" fill="#939596"/>
<path d="M17.7052 26.5786L18.3989 25.3895L19.0115 26.0021L17.8224 26.6959C17.7463 26.7402 17.6608 26.6547 17.7052 26.5786Z" fill="#939596"/>
<path d="M17.9402 26.9801L19.2716 26.6298V27.4963L17.9402 27.1459C17.855 27.1235 17.855 27.0026 17.9402 26.9801Z" fill="#939596"/>
<path d="M17.8224 27.4303L19.0115 28.124L18.3989 28.7367L17.7052 27.5475C17.6608 27.4714 17.7463 27.3859 17.8224 27.4303Z" fill="#939596"/>
<path d="M17.4208 27.6653L17.7712 28.9966H16.9047L17.2551 27.6653C17.2775 27.5801 17.3984 27.5801 17.4208 27.6653Z" fill="#939596"/>
<path d="M16.9707 27.5475L16.277 28.7367L15.6644 28.124L16.8535 27.4303C16.9296 27.3859 17.0151 27.4714 16.9707 27.5475Z" fill="#939596"/>
<path d="M16.7357 27.1459L15.4043 27.4963V26.6298L16.7357 26.9801C16.821 27.0026 16.821 27.1235 16.7357 27.1459Z" fill="#939596"/>
<path d="M16.8535 26.6959L15.6644 26.0021L16.277 25.3895L16.9707 26.5786C17.0151 26.6547 16.9296 26.7402 16.8535 26.6959Z" fill="#939596"/>
<path d="M17.1291 27.0631C17.1291 27.1785 17.2226 27.272 17.3379 27.272C17.4533 27.272 17.5468 27.1785 17.5468 27.0631C17.5468 26.9478 17.4533 26.8542 17.3379 26.8542C17.2226 26.8542 17.1291 26.9478 17.1291 27.0631Z" fill="#939596"/>
<defs>
<linearGradient id="paint0_linear" x1="53.643" y1="14.6549" x2="70.9863" y2="14.6549" gradientUnits="userSpaceOnUse">
<stop stop-color="#FFD208"/>
<stop offset="0.592157" stop-color="#F7E804"/>
<stop offset="0.988235" stop-color="#EEFF00"/>
<stop offset="1" stop-color="#3F34F0"/>
</linearGradient>
<linearGradient id="paint1_linear" x1="60.0567" y1="26.816" x2="60.3421" y2="27.3102" gradientUnits="userSpaceOnUse">
<stop stop-color="#56548C"/>
<stop offset="0.309804" stop-color="#56548C"/>
<stop offset="0.929412" stop-color="#3B3679"/>
<stop offset="1" stop-color="#3B3679"/>
</linearGradient>
</defs>
</svg>
