<svg width="64" height="34" viewBox="0 0 64 34" fill="none" xmlns="http://www.w3.org/2000/svg">
<path d="M0 27.2187H33.6623V7.78406H0V27.2187Z" fill="#457AC9"/>
<path d="M63.805 27.2186H33.6623V7.784L48.9528 0L63.805 7.784V27.2186Z" fill="#5FA0FF"/>
<path d="M0 7.784L15.0716 0.05L48.9528 0L33.6623 7.784H0Z" fill="#8498AF"/>
<path d="M33.6631 9.94087H0V8.37927V9.34578H33.6631L33.6623 9.94087H33.6631Z" fill="#075061"/>
<path d="M33.6631 9.94092L33.6623 9.34583H33.6631V9.94092Z" fill="#03A9D0"/>
<path d="M0 9.34585H33.6629V7.78406H0V9.34585Z" fill="#4E5D72"/>
<path d="M15.0716 0.0500488H23.6522L10.506 7.84645L0 7.83515L15.0716 0.0500488Z" fill="#5D6D89"/>
<path d="M32.0131 0.0500488H40.4282L26.5127 7.93265H17.8772L32.0131 0.0500488Z" fill="#5D6D89"/>
<path d="M0 7.80912H0.742798V4.06592H0V7.80912Z" fill="#DADCE5"/>
<path d="M0.336792 7.75994H0.709192V4.18933H0.336792V7.75994Z" fill="#B7BAC4"/>
<path d="M2.31097 7.80912H3.05317V4.06592H2.31097V7.80912Z" fill="#DADCE5"/>
<path d="M2.64642 7.75994H3.01942V4.18933H2.64642V7.75994Z" fill="#B7BAC4"/>
<path d="M4.95081 7.80912H5.69321V4.06592H4.95081V7.80912Z" fill="#DADCE5"/>
<path d="M5.28693 7.75994H5.65993V4.18933H5.28693V7.75994Z" fill="#B7BAC4"/>
<path d="M7.59039 7.80912H8.33329V4.06592H7.59039V7.80912Z" fill="#DADCE5"/>
<path d="M7.927 7.75994H8.3002V4.18933H7.927V7.75994Z" fill="#B7BAC4"/>
<path d="M9.90112 7.80912H10.6436V4.06592H9.90112V7.80912Z" fill="#DADCE5"/>
<path d="M10.2375 7.75994H10.6106V4.18933H10.2375V7.75994Z" fill="#B7BAC4"/>
<path d="M12.541 7.80912H13.2836V4.06592H12.541V7.80912Z" fill="#DADCE5"/>
<path d="M12.8778 7.75994H13.2509V4.18933H12.8778V7.75994Z" fill="#B7BAC4"/>
<path d="M15.1816 7.80912H15.9237V4.06592H15.1816V7.80912Z" fill="#DADCE5"/>
<path d="M15.5174 7.75994H15.89V4.18933H15.5174V7.75994Z" fill="#B7BAC4"/>
<path d="M17.8216 7.80912H18.5643V4.06592H17.8216V7.80912Z" fill="#DADCE5"/>
<path d="M18.1575 7.75994H18.5308V4.18933H18.1575V7.75994Z" fill="#B7BAC4"/>
<path d="M20.4619 7.80912H21.2044V4.06592H20.4619V7.80912Z" fill="#DADCE5"/>
<path d="M20.798 7.75994H21.1703V4.18933H20.798V7.75994Z" fill="#B7BAC4"/>
<path d="M23.1018 7.80912H23.8446V4.06592H23.1018V7.80912Z" fill="#DADCE5"/>
<path d="M23.4386 7.75994H23.8108V4.18933H23.4386V7.75994Z" fill="#B7BAC4"/>
<path d="M25.7426 7.80912H26.4847V4.06592H25.7426V7.80912Z" fill="#DADCE5"/>
<path d="M26.0792 7.75994H26.4509V4.18933H26.0792V7.75994Z" fill="#B7BAC4"/>
<path d="M28.3823 7.80912H29.125V4.06592H28.3823V7.80912Z" fill="#DADCE5"/>
<path d="M28.7189 7.75994H29.0909V4.18933H28.7189V7.75994Z" fill="#B7BAC4"/>
<path d="M30.6929 7.80912H31.4354V4.06592H30.6929V7.80912Z" fill="#DADCE5"/>
<path d="M31.029 7.75994H31.401V4.18933H31.029V7.75994Z" fill="#B7BAC4"/>
<path d="M32.9103 7.78144H33.6525V4.11194H32.9103V7.78144Z" fill="#DADCE5"/>
<path d="M33.2458 7.73216H33.6186V4.23315H33.2458V7.73216Z" fill="#B7BAC4"/>
<path d="M0 7.82049H33.6623V7.04089H0V7.82049Z" fill="#DADCE5"/>
<path d="M0 7.83504H33.6623V7.46924H0V7.83504Z" fill="#B7BAC4"/>
<path d="M0 4.80912H33.6623V4.06592H0V4.80912Z" fill="#DADCE5"/>
<path d="M0 4.82259H33.6623V4.474H0V4.82259Z" fill="#B7BAC4"/>
<path d="M36.6788 27.2186H36.4364L36.4229 6.53709L36.6646 6.49219L36.6788 27.2186Z" fill="#457AC9"/>
<path d="M39.6493 27.2186H39.4077L39.3934 5.40148L39.6351 5.35437L39.6493 27.2186Z" fill="#457AC9"/>
<path d="M42.2895 27.2186H42.0475L42.0332 4.61055L42.2749 4.56116L42.2895 27.2186Z" fill="#457AC9"/>
<path d="M44.9293 27.2186H44.688L44.6737 2.88442L44.9157 2.83142L44.9293 27.2186Z" fill="#457AC9"/>
<path d="M47.8998 27.2186H47.6581L47.6442 1.84014L47.8855 1.78455L47.8998 27.2186Z" fill="#457AC9"/>
<path d="M50.5399 27.2186H50.2979L50.284 1.94414L50.5256 1.89014L50.5399 27.2186Z" fill="#457AC9"/>
<path d="M53.1804 27.2186H52.9377L52.9246 2.87853L53.1662 2.82593L53.1804 27.2186Z" fill="#457AC9"/>
<path d="M55.8206 27.2186H55.5778L55.5651 4.1648L55.8067 4.1156L55.8206 27.2186Z" fill="#457AC9"/>
<path d="M58.4611 27.2186H58.2188L58.2056 6.53709L58.4465 6.49219L58.4611 27.2186Z" fill="#457AC9"/>
<path d="M61.4313 27.2186H61.1885L61.1747 6.53709L61.4174 6.49219L61.4313 27.2186Z" fill="#457AC9"/>
<path d="M63.7779 10.0406L61.4189 8.82145L61.4177 7.12815L63.805 8.37935L63.7779 10.0406ZM33.6631 9.94096V8.37895L36.4233 6.97366L36.4243 8.57576L33.6631 9.94096ZM36.666 8.45605L36.6649 6.85076L39.3938 5.46176L39.3948 7.10695L36.666 8.45605ZM39.6361 6.98756L39.6351 5.35445L39.5854 5.36395L48.9528 0.595459L55.7082 4.13576L55.5651 4.16485L55.5658 5.79645L53.1673 4.55695L53.1662 2.82596L52.9246 2.87855L52.9257 4.43206L50.5263 3.19216L50.5256 1.89016L50.284 1.94416L50.2847 3.06726L48.9542 2.37966L47.8859 2.90815L47.8855 1.78456L47.6442 1.84016L47.6449 3.02716L44.9165 4.37626L44.9157 2.83145L44.6737 2.88445L44.6749 4.49596L42.2756 5.68226L42.2749 4.56126L42.0332 4.61065L42.0339 5.80166L39.6361 6.98756Z" fill="#457AC9"/>
<path d="M33.6631 9.94092L33.6626 9.34583H33.6631V9.94092Z" fill="#0398BB"/>
<path d="M33.6631 9.34581L33.6623 8.37931L33.6631 8.37891V9.34581Z" fill="#465466"/>
<path d="M36.4243 8.57571L36.4233 6.97361L36.6649 6.85071L36.666 8.456L36.4243 8.57571Z" fill="#0D8092"/>
<path d="M39.3948 7.10687L39.3938 5.46167L39.5854 5.36387L39.6351 5.35437L39.6361 6.98748L39.3948 7.10687Z" fill="#0D8092"/>
<path d="M42.0339 5.80156L42.0332 4.61055L42.2749 4.56116L42.2756 5.68215L42.0339 5.80156Z" fill="#0D8092"/>
<path d="M44.6749 4.49592L44.6737 2.88442L44.9157 2.83142L44.9165 4.37623L44.6749 4.49592Z" fill="#457AC9"/>
<path d="M61.1761 8.69574L58.4469 7.28543L58.4465 6.49223L58.2056 6.53713L58.2059 7.16093L55.8078 5.92133L55.8067 4.18713L61.175 7.00103L61.1761 8.69574Z" fill="#457AC9"/>
<path d="M47.6449 3.02714L47.6442 1.84014L47.8855 1.78455L47.8859 2.90814L47.6449 3.02714Z" fill="#0D8092"/>
<path d="M50.5263 3.19214L50.2847 3.06724L50.284 1.94414L50.5256 1.89014L50.5263 3.19214Z" fill="#0D8092"/>
<path d="M53.1673 4.55692L52.9257 4.43203L52.9246 2.87853L53.1662 2.82593L53.1673 4.55692Z" fill="#0D8092"/>
<path d="M55.8078 5.92134L55.5658 5.79644L55.5651 4.16483L55.7082 4.13574L55.8067 4.18714L55.8078 5.92134Z" fill="#0D8092"/>
<path d="M58.4469 7.28539L58.2059 7.16089L58.2056 6.53709L58.4465 6.49219L58.4469 7.28539Z" fill="#0D8092"/>
<path d="M61.4189 8.82138L61.1761 8.69568L61.175 7.00098L61.4177 7.12808L61.4189 8.82138Z" fill="#0D8092"/>
<path d="M33.6623 7.784L33.6631 9.3458L48.9542 1.7845L63.7779 9.4452L63.805 7.784L48.9528 0L33.6623 7.784Z" fill="#5D6D89"/>
<path d="M33.6492 8.5896L48.9528 0.930098L63.7637 8.6276L63.805 7.784L48.9528 0L33.6623 7.8351L33.6492 8.5896Z" fill="#718299"/>
<path d="M1.76971 15.3682H30.7681V11.3365H1.76971V15.3682Z" fill="#DADCE5"/>
<path d="M35.5739 27.0988H62.0031V12.6606H35.5739V27.0988Z" fill="#457AC9"/>
<path d="M36.8751 27.1886H60.5013V13.8334H36.8751V27.1886Z" fill="#8498AF"/>
<path d="M33.5714 27.2186H63.8048V26.6481H33.5714V27.2186Z" fill="#718299"/>
<path d="M38.2761 26.6481H58.9991V15.2773H38.2761V26.6481Z" fill="#F2F4F4"/>
<path d="M2.03601 15.0971H30.4677V11.5784H2.03601V15.0971Z" fill="white"/>
<path d="M2.43652 14.6912H29.9161V12.0593H2.43652V14.6912Z" fill="#5FA0FF"/>
<path d="M2.43652 14.6913L29.9161 12.0594H2.43652V14.6913Z" fill="#457AC9"/>
<path d="M1.76971 20.4209H30.7681V16.3912H1.76971V20.4209Z" fill="#DADCE5"/>
<path d="M2.03601 20.1507H30.4677V16.6316H2.03601V20.1507Z" fill="white"/>
<path d="M2.43652 19.7446H29.9161V17.1121H2.43652V19.7446Z" fill="#5FA0FF"/>
<path d="M2.43652 19.7445L29.9161 17.1119H2.43652V19.7445Z" fill="#457AC9"/>
<path d="M1.76971 25.4745H30.7681V21.4441H1.76971V25.4745Z" fill="#DADCE5"/>
<path d="M2.03601 25.2036H30.4677V21.6848H2.03601V25.2036Z" fill="white"/>
<path d="M2.43652 24.7974H29.9161V22.1653H2.43652V24.7974Z" fill="#5FA0FF"/>
<path d="M2.43652 24.7974L29.9161 22.1653H2.43652V24.7974Z" fill="#457AC9"/>
<path d="M37.8757 21.0531H59.4V15.0513H37.8757V21.0531Z" fill="#DADCE5"/>
<path d="M37.8757 15.5935H59.4499V15.0514H37.8757V15.5935Z" fill="#B7BAC4"/>
<path d="M37.8757 16.6765H59.4499V16.1343H37.8757V16.6765Z" fill="#B7BAC4"/>
<path d="M37.8757 17.7584H59.4499V17.2183H37.8757V17.7584Z" fill="#B7BAC4"/>
<path d="M37.8757 18.8414H59.4499V18.3009H37.8757V18.8414Z" fill="#B7BAC4"/>
<path d="M37.8757 19.9241H59.4499V19.3835H37.8757V19.9241Z" fill="#B7BAC4"/>
<path d="M37.8757 21.3684H59.4499V20.8264H37.8757V21.3684Z" fill="#B7BAC4"/>
<path d="M37.5577 28.2913H45.2757V27.9486H37.5577V28.2913Z" fill="#ECB964"/>
<path d="M37.5577 28.802H39.0618V28.2913H37.5577V28.802Z" fill="#ECB964"/>
<path d="M40.8422 28.802H42.3468V28.2913H40.8422V28.802Z" fill="#ECB964"/>
<path d="M43.7718 28.7884H45.2756V28.2784H43.7718V28.7884Z" fill="#ECB964"/>
<path d="M42.3467 28.7885H43.7718V28.2913H42.3467V28.7885Z" fill="#C69958"/>
<path d="M39.0616 28.802H40.842V28.2913H39.0616V28.802Z" fill="#C69958"/>
<path d="M39.0616 28.2913L40.8422 28.802V28.2913H39.0616Z" fill="#AA824D"/>
<path d="M42.3467 28.2913L43.7718 28.7884V28.2913H42.3467Z" fill="#AA824D"/>
<path d="M37.5577 28.1299H45.2757V27.9487H37.5577V28.1299Z" fill="#C69958"/>
<path d="M33.6447 28.1282H37.6782V27.9507H33.6447V28.1282Z" fill="#C69958"/>
<path d="M33.6447 28.8019H37.5577V28.1252H33.6447V28.8019Z" fill="#DBAA63"/>
<path d="M34.5851 28.8007H36.2269V28.3193H34.5851V28.8007Z" fill="#C69758"/>
<path d="M34.5851 28.8007L36.2269 28.3193H34.5851V28.8007Z" fill="#AA824D"/>
<path d="M37.5697 28.9578H44.7686V28.7914H37.5697V28.9578Z" fill="#715E67"/>
<path d="M33.9068 28.9578H37.5698V28.7886H33.9068V28.9578Z" fill="#5B4F55"/>
<path d="M36.8868 22.2047H37.5818V19.6108H36.8868V22.2047Z" fill="#B26E60"/>
<path d="M40.521 19.6108L43.34 19.644L43.3253 22.4213L40.5519 22.4206L40.521 19.6108Z" fill="#FCC491"/>
<path d="M40.5519 22.4206L38.3677 22.3878L38.4166 19.6549L40.5519 19.6108V22.4206Z" fill="#FCC491"/>
<path d="M40.5519 22.4206L39.8566 22.4046L39.8103 19.6331L40.5519 19.6108V22.4206Z" fill="#B26E60"/>
<path d="M37.5534 19.5966L40.4282 19.616V22.4106L37.5859 22.4076L37.5534 19.5966Z" fill="#FCC491"/>
<path d="M37.5859 22.4076H35.4344L35.4502 19.6426L37.5859 19.5966V22.4076Z" fill="#CB8371"/>
<path d="M39.3956 20.043L38.4677 20.0329L38.4637 19.6003L39.3956 19.6109V20.043Z" fill="#EAB488"/>
<path d="M42.4723 20.0671L41.5444 20.0566L41.5401 19.6248L42.4723 19.6342V20.0671Z" fill="#EAB488"/>
<path d="M41.8587 22.3627L44.6781 22.3956L44.6624 25.0858L41.8905 25.13L41.8587 22.3627Z" fill="#FCC491"/>
<path d="M41.8905 25.13H39.7402L39.7555 22.4065L41.8905 22.3627V25.13Z" fill="#CB8371"/>
<path d="M41.8905 25.1299L41.1695 25.1254L41.1915 22.3586H41.8872L41.8905 25.1299Z" fill="#B26E60"/>
<path d="M35.3308 24.9289H36.0262V22.3344H35.3308V24.9289Z" fill="#B26E60"/>
<path d="M38.9652 22.3342L41.7847 22.3682L41.7701 25.1456H38.9963L38.9652 22.3342Z" fill="#FCC491"/>
<path d="M38.9963 25.1456L36.812 25.1116L36.861 22.3791L38.9963 22.3342V25.1456Z" fill="#FCC491"/>
<path d="M38.9963 25.1456L38.301 25.1288L38.2546 22.3573L38.9963 22.3342V25.1456Z" fill="#B26E60"/>
<path d="M35.9976 22.321L38.8729 22.3407V25.1345L36.0308 25.1306L35.9976 22.321Z" fill="#FCC491"/>
<path d="M36.0308 25.1306H33.8788L33.8941 22.3659L36.0308 22.321V25.1306Z" fill="#CB8371"/>
<path d="M37.8399 22.7671L36.912 22.7562L36.9073 22.3241L37.8399 22.3342V22.7671Z" fill="#EAB488"/>
<path d="M40.9167 22.7902L39.9887 22.7803L39.9847 22.3474L40.9167 22.3583V22.7902Z" fill="#EAB488"/>
<path d="M43.8619 22.8234L42.9344 22.8146L42.9296 22.3824L43.8619 22.3915V22.8234Z" fill="#EAB488"/>
<path d="M42.2766 25.0547L45.4198 25.0927L45.4012 28.0917L42.3113 28.1416L42.2766 25.0547Z" fill="#EFB789"/>
<path d="M42.3113 28.1416H39.9139L39.9314 25.1051L42.3113 25.0547V28.1416Z" fill="#CB8371"/>
<path d="M42.3113 28.1416L41.508 28.134L41.5324 25.0518H42.3081L42.3113 28.1416Z" fill="#B26E60"/>
<path d="M34.9935 27.9048H35.7681V25.0139H34.9935V27.9048Z" fill="#B26E60"/>
<path d="M39.0438 25.0139L42.1873 25.0526L42.1705 28.1471L39.0787 28.1461L39.0438 25.0139Z" fill="#EFB789"/>
<path d="M39.0787 28.1461L36.6441 28.1091L36.6996 25.0638L39.0787 25.0139V28.1461Z" fill="#CB8371"/>
<path d="M39.0787 28.1461L38.3038 28.1285L38.2527 25.0383L39.0787 25.0139V28.1461Z" fill="#B26E60"/>
<path d="M35.7363 24.9989L38.9408 25.0201V28.1354L35.7725 28.1314L35.7363 24.9989Z" fill="#EFB789"/>
<path d="M35.7725 28.1314H33.375L33.3919 25.0496L35.7725 24.9989V28.1314Z" fill="#CB8371"/>
<path d="M37.7899 25.4953L36.7554 25.4843L36.7511 25.0022L37.7899 25.0139V25.4953Z" fill="#D3A17D"/>
<path d="M41.2189 25.5226L40.1847 25.5106L40.1801 25.0288L41.2189 25.0405V25.5226Z" fill="#D3A17D"/>
<path d="M44.5029 25.5588L43.4688 25.5482L43.4633 25.0664L44.5029 25.0777V25.5588Z" fill="#D3A17D"/>
<path d="M35.4278 22.328H37.5917L37.5859 19.5966L35.4278 22.328Z" fill="#B26E60"/>
<path d="M36.0261 22.3342L36.0155 24.9989L33.8788 25.0529L36.0261 22.3342Z" fill="#B26E60"/>
<path d="M35.768 25.0139L35.7725 28.1314H33.375L35.768 25.0139Z" fill="#B26E60"/>
<path d="M39.6504 28.2912H39.5766L39.5752 28.2784H39.7697L39.7708 28.2865L39.6504 28.2912Z" fill="#D4A65A"/>
<path d="M39.577 28.2938L39.5766 28.2913H39.6504L39.577 28.2938Z" fill="#997545"/>
<path d="M38.4637 19.6028L38.3911 19.6024L38.3907 19.5995L38.533 19.5802L38.5359 19.601L38.4637 19.6003V19.6028Z" fill="#A4A7B0"/>
<path d="M38.7645 22.3394L38.3911 19.6024L38.4637 19.6028L38.4677 20.0329L38.5973 20.0343L38.9248 22.3357L38.7645 22.3394Z" fill="#E2B082"/>
<path d="M38.5973 20.0343L38.4677 20.0329L38.4637 19.6028V19.6003L38.5359 19.601L38.5973 20.0343Z" fill="#D2A27A"/>
<path d="M39.3058 25.0171L39.1298 25.0149L38.9963 24.0367V22.839L39.3058 25.0171Z" fill="#E2B082"/>
<path d="M38.8025 22.3404L38.7648 22.3401L38.7645 22.3394L38.9248 22.3357V22.3364L38.8025 22.3404Z" fill="#E2B082"/>
<path d="M38.9963 24.0367L38.8729 23.1314V22.3408L38.8025 22.3404L38.9248 22.3364L38.9963 22.839V24.0367Z" fill="#A06356"/>
<path d="M38.8729 23.1314L38.7648 22.3401L38.8025 22.3404L38.8729 22.3408V23.1314Z" fill="#E2B082"/>
<path d="M39.7482 28.1282H39.5544L39.1298 25.0149L39.3058 25.0171L39.7482 28.1282Z" fill="#D7A47B"/>
<path d="M42.9625 28.2912H42.8892L42.8873 28.2784H43.0818L43.083 28.2865L42.9625 28.2912Z" fill="#D4A65A"/>
<path d="M42.8895 28.2938L42.8892 28.2913H42.9625L42.8895 28.2938Z" fill="#997545"/>
<path d="M41.8521 19.6265L41.7065 19.6251L41.7028 19.5995L41.8456 19.5802L41.8521 19.6265Z" fill="#A4A7B0"/>
<path d="M42.2416 22.3674L42.0803 22.3653L41.7656 20.0591L41.9139 20.0609L42.2416 22.3674ZM41.8521 19.628L41.7065 19.6265V19.6251L41.8521 19.6265V19.628Z" fill="#E2B082"/>
<path d="M41.9139 20.0609L41.7656 20.0591L41.7065 19.6265L41.8521 19.628L41.9139 20.0609Z" fill="#D2A27A"/>
<path d="M42.6242 25.0592L42.4479 25.0569L42.0803 22.3654L42.2416 22.3675L42.6242 25.0592Z" fill="#E2B082"/>
<path d="M43.0603 28.1282H42.8669L42.4479 25.0569L42.6242 25.0591L43.0603 28.1282Z" fill="#D7A47B"/>
<path d="M45.2756 28.2785H43.0818L43.0607 28.1299H45.2756V28.2785Z" fill="#D4A65A"/>
<path d="M45.2756 28.1299H43.0607V28.1296L43.1454 28.1282H45.2756V28.1299Z" fill="#B2894F"/>
<path d="M43.0607 28.1296L43.0603 28.1282H43.1454L43.0607 28.1296Z" fill="#D7A47B"/>
<path d="M42.8873 28.2785H39.7697L39.7511 28.1464L42.1705 28.1471V28.1416H42.3113L42.8677 28.1329L42.8873 28.2785Z" fill="#D4A65A"/>
<path d="M42.3113 28.1416V28.1282H42.8669L42.8677 28.1329L42.3113 28.1416Z" fill="#D7A47B"/>
<path d="M42.3113 28.1416V28.1282V28.1416ZM42.3113 28.1416H42.1705V28.1406L42.3113 28.1416Z" fill="#B67665"/>
<path d="M42.3113 28.1416L42.1705 28.1406V28.1282H42.3113V28.1416Z" fill="#A06356"/>
<path d="M42.1705 28.1471L39.7511 28.1464L39.7482 28.1282H42.1705V28.1471Z" fill="#D7A47B"/>
<path d="M39.5752 28.2785H37.5577V28.1337L38.3268 28.1347L39.0787 28.1461L39.557 28.1464L39.5752 28.2785Z" fill="#D4A65A"/>
<path d="M37.5577 28.2784H33.6447V28.1313H35.7725L37.5577 28.1337V28.2784Z" fill="#C59959"/>
<path d="M39.557 28.1464L39.0787 28.1461V28.1282H39.5544L39.557 28.1464Z" fill="#D7A47B"/>
<path d="M39.0787 28.146L38.3268 28.1346L38.5849 28.135L39.0787 28.146Z" fill="#B67665"/>
<path d="M39.0787 28.1461L38.5849 28.1351L38.9408 28.1354V28.1282H39.0787V28.1461Z" fill="#A06356"/>
<path d="M38.9408 28.1354L38.5849 28.1351L38.3268 28.1347L37.5577 28.1337L35.7725 28.1314V28.1282H38.9408V28.1354Z" fill="#D7A47B"/>
<path d="M33.6447 28.1314H35.7724V28.1282H33.6447V28.1314Z" fill="#A06356"/>
<path d="M39.7697 28.2785H39.5752L39.557 28.1464H39.7511L39.7697 28.2785Z" fill="#BE9551"/>
<path d="M39.7511 28.1464H39.557L39.5544 28.1282H39.7482L39.7511 28.1464Z" fill="#C1936E"/>
<path d="M43.0818 28.2785H42.8873L42.8677 28.1329L43.0359 28.1299H43.0607L43.0818 28.2785Z" fill="#BE9551"/>
<path d="M43.0607 28.1299H43.0359L43.0607 28.1296V28.1299Z" fill="#A07B47"/>
<path d="M42.8677 28.1329L42.8669 28.1282H43.0603L43.0607 28.1296L43.0359 28.1299L42.8677 28.1329Z" fill="#C1936E"/>
<path d="M40.091 28.2866L39.8972 28.2938L38.7115 19.5995L38.8532 19.5802L40.091 28.2866Z" fill="white"/>
<path d="M43.4038 28.2866L43.2096 28.2938L42.0234 19.5995L42.1657 19.5802L43.4038 28.2866Z" fill="white"/>
<path d="M24.6881 23.0901H25.36V20.5846H24.6881V23.0901Z" fill="#B26E60"/>
<path d="M28.1988 20.5846L30.9218 20.6171L30.9072 23.2995L28.2287 23.2988L28.1988 20.5846Z" fill="#FCC491"/>
<path d="M28.2287 23.2988L26.1188 23.267L26.1663 20.628L28.2287 20.5846V23.2988Z" fill="#FCC491"/>
<path d="M28.2287 23.2988L27.5574 23.2831L27.5122 20.6061L28.2287 20.5846V23.2988Z" fill="#B26E60"/>
<path d="M25.3327 20.5715L28.109 20.59V23.2893L25.364 23.2857L25.3327 20.5715Z" fill="#FCC491"/>
<path d="M25.364 23.2857H23.2864L23.301 20.6148L25.364 20.5715V23.2857Z" fill="#CB8371"/>
<path d="M27.1121 21.0018L26.2156 20.9927L26.2115 20.5747L27.1121 20.5846V21.0018Z" fill="#EAB488"/>
<path d="M30.0829 21.0252L29.1868 21.0152L29.1825 20.5981L30.0829 20.6076V21.0252Z" fill="#EAB488"/>
<path d="M23.2794 23.209H25.3691L25.364 20.5715L23.2794 23.209Z" fill="#B26E60"/>
<path d="M26.3106 20.4597H26.9632V18.0232H26.3106V20.4597Z" fill="#B26E60"/>
<path d="M26.9373 18.0109L29.6366 18.0285V20.6533L26.9668 20.65L26.9373 18.0109Z" fill="#FCC491"/>
<path d="M26.9672 20.65H24.9472L24.9617 18.0532L26.9672 18.0109V20.65Z" fill="#CB8371"/>
<path d="M28.6667 18.4292L27.795 18.4201L27.7914 18.0142L28.6667 18.0233V18.4292Z" fill="#EAB488"/>
<path d="M24.9406 20.5755H26.9723L26.9672 18.0109L24.9406 20.5755Z" fill="#B26E60"/>
<path d="M16.9055 20.9985L18.87 21.0281L18.8606 23.37L16.9296 23.408L16.9055 20.9985Z" fill="#EAB488"/>
<path d="M16.9296 23.408H15.4293L15.4407 21.0368L16.9296 20.9985V23.408Z" fill="#CB8371"/>
<path d="M16.9296 20.9985L15.4381 23.247L15.4407 21.0368L16.9296 20.9985Z" fill="#B26E60"/>
<path d="M20.6583 20.9784L22.6213 21.009L22.6119 23.3364L20.6802 23.3729L20.6583 20.9784Z" fill="#FCC491"/>
<path d="M20.6802 23.3729H19.1806L19.193 21.0186L20.6802 20.9784V23.3729Z" fill="#CB8371"/>
<path d="M20.1932 23.373H20.6773V20.9895H20.1932V23.373Z" fill="#B26E60"/>
<path d="M18.6069 20.9518L20.5721 20.9814L20.5619 23.3697L18.6306 23.4081L18.6069 20.9518Z" fill="#FCC491"/>
<path d="M18.6306 23.4081H17.13L17.1421 20.9917L18.6306 20.9518V23.4081Z" fill="#CB8371"/>
<path d="M18.6306 20.9712L17.1384 23.2427L17.1421 21.0106L18.6306 20.9712Z" fill="#B26E60"/>
<path d="M16.9088 18.6128L18.8561 18.6424L18.8437 20.9847L16.9296 21.0223L16.9088 18.6128Z" fill="#EAB488"/>
<path d="M16.9296 21.0223H15.4443L15.4549 18.6522L16.9296 18.6128V21.0223Z" fill="#CB8371"/>
<path d="M16.9296 18.6128L15.4527 20.8602L15.4549 18.6522L16.9296 18.6128Z" fill="#B26E60"/>
<path d="M20.6422 18.5942L22.6071 18.6234L22.5964 20.95L20.664 20.9868L20.6422 18.5942Z" fill="#FCC491"/>
<path d="M20.664 20.9868H19.166L19.1767 18.6325L20.664 18.5942V20.9868Z" fill="#CB8371"/>
<path d="M20.1775 20.9875H20.6619V18.6042H20.1775V20.9875Z" fill="#B26E60"/>
<path d="M18.5919 18.566L20.5575 18.5945L20.5443 20.9835L18.6131 21.0222L18.5919 18.566Z" fill="#FCC491"/>
<path d="M18.6131 21.0222H17.1146L17.1268 18.6062L18.6131 18.566V21.0222Z" fill="#CB8371"/>
<path d="M18.6131 18.566L17.1234 20.8573L17.1268 18.6062L18.6131 18.566Z" fill="#B26E60"/>
<path d="M18.6069 21.0617H22.6112V20.9519H18.6069V21.0617Z" fill="#995E55"/>
<path d="M15.4422 21.0616H18.6269V20.9442H15.4422V21.0616Z" fill="#995E55"/>
<path d="M19.9344 21.5435L19.1135 21.5468L19.1015 21.0664L19.9253 21.0627L19.9344 21.5435Z" fill="#EAB488"/>
<path d="M22.0913 21.5435L21.2704 21.5394L21.2642 21.0577L22.0899 21.0627L22.0913 21.5435Z" fill="#EAB488"/>
<path d="M19.9443 19.0629L19.123 19.0666L19.1098 18.5855L19.9366 18.5829L19.9443 19.0629Z" fill="#EAB488"/>
<path d="M22.0822 19.0951L21.2605 19.0884L21.2525 18.6084L22.0789 18.6132L22.0822 19.0951Z" fill="#EAB488"/>
<path d="M20.8904 32.7747H34.0225V32.1919H20.8904V32.7747Z" fill="#ECB964"/>
<path d="M20.8904 33.6442H23.4492V32.7747H20.8904V33.6442Z" fill="#ECB964"/>
<path d="M26.4788 33.6442H29.0387V32.7747H26.4788V33.6442Z" fill="#ECB964"/>
<path d="M31.4634 33.6208H34.0225V32.7529H31.4634V33.6208Z" fill="#ECB964"/>
<path d="M29.0386 33.6209H31.4634V32.7747H29.0386V33.6209Z" fill="#C69958"/>
<path d="M23.4491 33.6442H26.4786V32.7747H23.4491V33.6442Z" fill="#C69958"/>
<path d="M23.4491 32.7747L26.4788 33.6442V32.7747H23.4491Z" fill="#AA824D"/>
<path d="M29.0386 32.7747L31.4634 33.6209V32.7747H29.0386Z" fill="#AA824D"/>
<path d="M20.8904 32.5009H34.0225V32.1919H20.8904V32.5009Z" fill="#C69958"/>
<path d="M14.2318 32.4976H21.0956V32.1953H14.2318V32.4976Z" fill="#C69958"/>
<path d="M14.2318 33.6442H20.8904V32.4922H14.2318V33.6442Z" fill="#DBAA63"/>
<path d="M15.832 33.642H18.6259V32.8228H15.832V33.642Z" fill="#C69758"/>
<path d="M15.832 33.642L18.6258 32.8229H15.832V33.642Z" fill="#AA824D"/>
<path d="M20.9112 33.9087H33.1594V33.6255H20.9112V33.9087Z" fill="#715E67"/>
<path d="M14.6786 33.9087H20.9112V33.6207H14.6786V33.9087Z" fill="#5B4F55"/>
<path d="M19.7494 22.4185H20.9309V18.0054H19.7494V22.4185Z" fill="#B26E60"/>
<path d="M25.9324 18.005L30.7283 18.0616L30.7042 22.7871L25.9857 22.786L25.9324 18.005Z" fill="#FCC491"/>
<path d="M25.9857 22.786L22.2686 22.7301L22.3515 18.0806L25.9857 18.005V22.786Z" fill="#FCC491"/>
<path d="M25.9857 22.7861L24.8019 22.7587L24.723 18.0431L25.9857 18.0054V22.7861Z" fill="#B26E60"/>
<path d="M20.8831 17.9812L25.7747 18.0137V22.7688L20.9386 22.7637L20.8831 17.9812Z" fill="#FCC491"/>
<path d="M20.9386 22.7637H17.2778L17.3045 18.059L20.9386 17.9812V22.7637Z" fill="#CB8371"/>
<path d="M24.0175 18.7403L22.4384 18.7231L22.4315 17.9872L24.0175 18.0051V18.7403Z" fill="#EAB488"/>
<path d="M29.2525 18.7814L27.6742 18.7635L27.6662 18.0288L29.2525 18.0445V18.7814Z" fill="#EAB488"/>
<path d="M28.2093 22.6875L33.0052 22.7434L32.9789 27.3211L28.2623 27.3955L28.2093 22.6875Z" fill="#FCC491"/>
<path d="M28.2623 27.3955H24.6037L24.6293 22.762L28.2623 22.6875V27.3955Z" fill="#CB8371"/>
<path d="M28.2623 27.3955L27.0362 27.3885L27.0738 22.6803H28.2571L28.2623 27.3955Z" fill="#B26E60"/>
<path d="M17.1005 27.0537H18.2842V22.6389H17.1005V27.0537Z" fill="#B26E60"/>
<path d="M23.2849 22.6389L28.0823 22.6969L28.0571 27.4228L23.3382 27.4221L23.2849 22.6389Z" fill="#FCC491"/>
<path d="M23.3382 27.4221L19.6212 27.3647L19.7048 22.7156L23.3382 22.6389V27.4221Z" fill="#FCC491"/>
<path d="M23.3382 27.4221L22.1548 27.3936L22.0763 22.6779L23.3382 22.6389V27.4221Z" fill="#B26E60"/>
<path d="M18.2368 22.6167L23.128 22.6503V27.4043L18.2922 27.3977L18.2368 22.6167Z" fill="#FCC491"/>
<path d="M18.2922 27.3973H14.63L14.6566 22.6934L18.2922 22.6167V27.3973Z" fill="#CB8371"/>
<path d="M21.3704 23.3755L19.7913 23.3569L19.7836 22.6217L21.3704 22.6389V23.3755Z" fill="#EAB488"/>
<path d="M26.6055 23.4149L25.0267 23.3981L25.0202 22.6615L26.6055 22.6798V23.4149Z" fill="#EAB488"/>
<path d="M31.6171 23.4712L30.0385 23.4563L30.0311 22.7211L31.6171 22.7357V23.4712Z" fill="#EAB488"/>
<path d="M28.9201 27.2681L34.2671 27.3323L34.2361 32.4349L28.9781 32.5207L28.9201 27.2681Z" fill="#EFB789"/>
<path d="M28.9781 32.5207H24.8994L24.9293 27.3539L28.9781 27.2681V32.5207Z" fill="#CB8371"/>
<path d="M28.9781 32.5207L27.6115 32.5071L27.6534 27.2626H28.9737L28.9781 32.5207Z" fill="#B26E60"/>
<path d="M16.5278 32.117H17.8453V27.1979H16.5278V32.117Z" fill="#B26E60"/>
<path d="M23.4192 27.198L28.767 27.2641L28.739 32.5298L23.4787 32.5279L23.4192 27.198Z" fill="#EFB789"/>
<path d="M23.4787 32.5279L19.3354 32.4648L19.43 27.2834L23.4787 27.198V32.5279Z" fill="#CB8371"/>
<path d="M23.4787 32.5279L22.1603 32.498L22.0727 27.2392L23.4787 27.198V32.5279Z" fill="#B26E60"/>
<path d="M17.7914 27.1727L23.2436 27.2085V32.5096L17.8527 32.5031L17.7914 27.1727Z" fill="#EFB789"/>
<path d="M17.8527 32.5031H13.7729L13.8022 27.2589L17.8527 27.1727V32.5031Z" fill="#CB8371"/>
<path d="M21.2857 28.0174L19.5256 27.9988L19.5179 27.1782L21.2857 27.1979V28.0174Z" fill="#D3A17D"/>
<path d="M27.1198 28.0642L25.3607 28.0441L25.3528 27.2239L27.1198 27.244V28.0642Z" fill="#D3A17D"/>
<path d="M32.7067 28.1254L30.9481 28.1072L30.9389 27.2874L32.7067 27.3071V28.1254Z" fill="#D3A17D"/>
<path d="M17.2661 22.6279H20.9484L20.9386 17.9812L17.2661 22.6279Z" fill="#B26E60"/>
<path d="M18.2842 22.6389L18.2667 27.1727L14.63 27.2644L18.2842 22.6389Z" fill="#B26E60"/>
<path d="M17.8454 27.198L17.8527 32.5032H13.7729L17.8454 27.198Z" fill="#B26E60"/>
<path d="M24.454 32.7746H24.3255L24.3226 32.7528H24.6537L24.6559 32.7667L24.454 32.7746Z" fill="#D4A65A"/>
<path d="M24.3263 32.7799L24.3255 32.7747H24.454L24.3263 32.7799Z" fill="#997545"/>
<path d="M22.4315 17.9915L22.3088 17.9907L22.3081 17.9857L22.549 17.9532L22.5541 17.9886L22.4315 17.9871V17.9915Z" fill="#D9DBDB"/>
<path d="M22.944 22.6473L22.3088 17.9907L22.4315 17.9915L22.4384 18.723L22.6589 18.7252L23.2159 22.6415L22.944 22.6473Z" fill="#E2B082"/>
<path d="M22.6589 18.7253L22.4384 18.7231L22.4315 17.9916V17.9872L22.5541 17.9887L22.6589 18.7253Z" fill="#D2A27A"/>
<path d="M23.8646 27.2034L23.5652 27.1997L23.3382 25.5367V23.5029L23.8646 27.2034Z" fill="#E2B082"/>
<path d="M22.998 22.6495L22.9443 22.6492L22.944 22.6474L23.2159 22.6416V22.6426L22.998 22.6495Z" fill="#E2B082"/>
<path d="M23.3382 25.5368L23.128 23.9954V22.6503L22.998 22.6495L23.2159 22.6426L23.3382 23.503V25.5368Z" fill="#A06356"/>
<path d="M23.128 23.9954L22.9443 22.6492L22.998 22.6495L23.128 22.6503V23.9954Z" fill="#E2B082"/>
<path d="M24.6176 32.4976H24.288L23.5652 27.1997L23.8646 27.2034L24.6176 32.4976Z" fill="#D7A47B"/>
<path d="M30.0906 32.7746H29.9621L29.9589 32.7528H30.2899L30.2922 32.7667L30.0906 32.7746Z" fill="#D4A65A"/>
<path d="M29.9628 32.7799L29.9621 32.7747H30.0906L29.9628 32.7799Z" fill="#997545"/>
<path d="M28.1955 18.0182L27.948 18.0156L27.9436 17.9857L28.1859 17.9532L28.1955 18.0182Z" fill="#D9DBDB"/>
<path d="M28.1973 18.0316L27.9494 18.0287L27.948 18.0156L28.1955 18.0182L28.1973 18.0316Z" fill="#D2A27A"/>
<path d="M28.8601 22.6952L28.5861 22.6919L28.0505 18.768L28.3025 18.7709L28.8601 22.6952ZM28.1976 18.0343L27.9498 18.0317L27.9494 18.0288L28.1973 18.0317L28.1976 18.0343Z" fill="#E2B082"/>
<path d="M28.3025 18.7708L28.0505 18.7679L27.9498 18.0316L28.1976 18.0342L28.3025 18.7708Z" fill="#D2A27A"/>
<path d="M29.5114 27.2754L29.2109 27.2717L28.5861 22.6919L28.8601 22.6952L29.5114 27.2754Z" fill="#E2B082"/>
<path d="M30.2538 32.4976H29.9242L29.2109 27.2716L29.5114 27.2753L30.2538 32.4976Z" fill="#D7A47B"/>
<path d="M34.0225 32.7529H30.2899L30.2542 32.5009H34.0225V32.7529Z" fill="#D4A65A"/>
<path d="M34.0225 32.5009H30.2542V32.4999L30.3983 32.4977H34.0225V32.5009Z" fill="#B2894F"/>
<path d="M30.2542 32.4999L30.2538 32.4977H30.3983L30.2542 32.4999Z" fill="#D7A47B"/>
<path d="M29.9589 32.7529H24.6537L24.6219 32.5284L28.739 32.5298V32.5207H28.9781L29.9253 32.5054L29.9589 32.7529Z" fill="#D4A65A"/>
<path d="M28.9781 32.5207V32.4977H29.9242L29.9253 32.5054L28.9781 32.5207Z" fill="#D7A47B"/>
<path d="M28.9781 32.5207V32.4977V32.5207ZM28.9781 32.5207H28.739V32.5185L28.9781 32.5207Z" fill="#B67665"/>
<path d="M28.9781 32.5207L28.739 32.5185V32.4977H28.9781V32.5207Z" fill="#A06356"/>
<path d="M28.739 32.5298L24.6219 32.5284L24.6176 32.4977H28.739V32.5298Z" fill="#D7A47B"/>
<path d="M24.3226 32.7528H20.8904V32.5067L22.2026 32.5085L23.4787 32.5278L24.292 32.5283L24.3226 32.7528Z" fill="#D4A65A"/>
<path d="M20.8904 32.7529H14.2318V32.5032H17.8527L20.8904 32.5068V32.7529Z" fill="#C59959"/>
<path d="M24.292 32.5284L23.4787 32.5279V32.4977H24.288L24.292 32.5284Z" fill="#D7A47B"/>
<path d="M23.4787 32.5278L22.2026 32.5085L22.6458 32.5089L23.4787 32.5278Z" fill="#B67665"/>
<path d="M23.4787 32.5279L22.6458 32.509L23.2436 32.5097V32.4977H23.4787V32.5279Z" fill="#A06356"/>
<path d="M23.2436 32.5097L22.6458 32.509L22.2026 32.5086L20.8904 32.5068L17.8527 32.5032V32.4977H23.2436V32.5097Z" fill="#D7A47B"/>
<path d="M14.2318 32.5032H17.8528V32.4977H14.2318V32.5032Z" fill="#A06356"/>
<path d="M24.6537 32.7528H24.3226L24.292 32.5283H24.6219L24.6537 32.7528Z" fill="#BE9551"/>
<path d="M24.6219 32.5284H24.292L24.288 32.4977H24.6176L24.6219 32.5284Z" fill="#C1936E"/>
<path d="M30.2899 32.7529H29.9589L29.9253 32.5054L30.191 32.5009H30.2542L30.2899 32.7529Z" fill="#BE9551"/>
<path d="M30.2542 32.5009H30.191L30.2542 32.4999V32.5009Z" fill="#A07B47"/>
<path d="M29.9253 32.5054L29.9242 32.4977H30.2538L30.2542 32.4999L30.191 32.5009L29.9253 32.5054Z" fill="#C1936E"/>
<path d="M25.2005 32.7667L24.8709 32.7798L22.8535 17.9857L23.0943 17.9532L25.2005 32.7667Z" fill="white"/>
<path d="M30.8379 32.7667L30.5075 32.7798L28.4886 17.9857L28.7309 17.9532L30.8379 32.7667Z" fill="white"/>
</svg>
