<svg width="463" height="400" viewBox="0 0 463 400" fill="none" xmlns="http://www.w3.org/2000/svg">
<path d="M341.388 58.6122C303.673 20.8163 253.388 0 200 0C146.612 0 96.3265 20.8163 58.6122 58.6122C20.898 96.4082 0 146.612 0 200C0 253.388 20.8163 303.673 58.6122 341.388C96.4082 379.102 146.612 400 200 400C253.388 400 303.673 379.184 341.388 341.388C379.102 303.592 400 253.388 400 200C400 146.612 379.184 96.3265 341.388 58.6122V58.6122ZM381.878 191.02H304.327C303.592 160.163 299.265 130.449 291.673 104.082C306.449 96.4898 320.245 86.9388 332.898 75.6735C361.469 106.204 379.673 146.531 381.878 191.02ZM208.98 208.98H286.449C285.796 237.388 281.878 264.571 275.102 288.898C254.204 280.49 231.918 275.592 208.98 274.531V208.98V208.98ZM320 63.1837C309.551 72.4082 298.122 80.2449 286.041 86.7755C282.939 78.1225 279.429 69.9592 275.51 62.2857C267.755 46.9388 258.939 34.3673 249.224 24.7347C275.755 32.1633 299.837 45.4694 320 63.1837ZM208.98 20.7347C227.673 24.898 245.306 42.1224 259.51 70.2041C263.347 77.7959 266.776 85.8776 269.796 94.449C250.612 102.367 230.122 107.02 208.98 108.082V20.7347ZM275.184 111.673C281.878 135.837 285.714 162.857 286.367 191.102H208.98V126.122C232 125.061 254.286 120.082 275.184 111.673V111.673ZM191.02 191.02H113.551C114.204 162.776 118.041 135.755 124.735 111.592C145.633 120.082 168 124.98 190.939 125.959V191.02H191.02ZM191.102 20.7347V108.082C169.959 107.02 149.388 102.367 130.286 94.449C133.306 85.8776 136.735 77.7959 140.571 70.2041C154.776 42.1224 172.408 24.898 191.102 20.7347V20.7347ZM150.857 24.7347C141.143 34.3673 132.327 47.0204 124.571 62.2857C120.735 69.9592 117.224 78.1225 114.041 86.7755C101.959 80.2449 90.6122 72.4082 80.0816 63.1837C100.245 45.4694 124.327 32.1633 150.857 24.7347ZM67.1837 75.6735C79.8367 86.9388 93.6327 96.4082 108.408 104.082C100.816 130.531 96.4082 160.163 95.7551 191.02H18.2041C20.4082 146.531 38.6122 106.204 67.1837 75.6735V75.6735ZM18.2041 208.98H95.7551C96.4898 240.082 100.898 269.878 108.571 296.408C93.8776 304 80.0816 313.388 67.5102 324.653C38.6939 294.041 20.4082 253.633 18.2041 208.98V208.98ZM80.4082 337.143C90.8571 328 102.204 320.163 114.204 313.714C117.306 322.122 120.735 330.204 124.571 337.714C132.327 353.061 141.143 365.633 150.857 375.347C124.49 367.918 100.49 354.694 80.4082 337.143ZM191.102 379.265C172.408 375.102 154.776 357.878 140.571 329.796C136.816 322.367 133.469 314.449 130.449 306.041C149.551 298.122 170.041 293.469 191.102 292.49V379.265V379.265ZM124.98 288.898C118.204 264.571 114.286 237.388 113.633 208.98H191.102V274.531C168.163 275.51 145.878 280.408 124.98 288.898ZM209.061 379.265V292.49C230.122 293.551 250.612 298.122 269.714 306.041C266.694 314.449 263.347 322.367 259.592 329.796C245.388 357.878 227.755 375.102 209.061 379.265V379.265ZM249.306 375.265C259.02 365.633 267.837 352.98 275.592 337.633C279.429 330.122 282.857 322.041 285.959 313.633C297.959 320.082 309.306 327.918 319.755 337.061C299.673 354.694 275.673 367.918 249.306 375.265V375.265ZM332.735 324.653C320.163 313.469 306.367 304 291.673 296.408C299.347 269.878 303.755 240 304.49 208.98H382.041C379.755 253.633 361.469 294.041 332.735 324.653V324.653Z" fill="black"/>
<g filter="url(#filter0_d)">
<path d="M253.463 234.183C257.312 229.514 263.152 226.915 269.214 226.915H400.75C404.51 226.915 408.094 227.972 411.191 229.866L417.916 206.475C419.022 202.643 422.517 200 426.499 200H436.719H456.231C459.947 200 463 202.995 463 206.74V207.444C463 211.145 459.991 214.184 456.231 214.184H430.658L417.606 260.128L399.643 323.517C409.864 326.072 417.429 335.278 417.429 346.202C417.429 358.581 407.74 368.756 395.485 369.549C396.502 372.456 396.989 375.672 396.723 378.976C395.838 390.164 386.68 399.195 375.442 399.944C362.037 400.869 350.843 390.253 350.843 377.126C350.843 374.483 351.285 371.972 352.126 369.593H325.226C326.332 372.721 326.775 376.201 326.376 379.769C325.138 390.605 316.156 399.151 305.184 399.944C291.778 400.869 280.54 390.297 280.54 377.126C280.54 364.395 291.159 354.22 303.901 354.22H393.759C398.139 354.22 401.856 350.828 402.033 346.511C402.21 341.93 398.537 338.185 393.98 338.185H380.486H307.352H286.778C277.664 338.185 269.7 331.974 267.488 323.164L249.614 251.539C248.065 245.372 249.481 239.072 253.463 234.183ZM303.502 369.549C299.344 369.549 295.937 372.941 295.937 377.082C295.937 381.222 299.344 384.614 303.502 384.614C307.661 384.614 311.068 381.222 311.068 377.082C311.068 372.941 307.706 369.549 303.502 369.549ZM373.805 369.549C369.646 369.549 366.24 372.941 366.24 377.082C366.24 381.222 369.646 384.614 373.805 384.614C377.964 384.614 381.371 381.222 381.371 377.082C381.371 372.941 378.008 369.549 373.805 369.549ZM401.59 260.04L405.041 247.927C405.572 246.076 404.82 244.711 404.289 244.05C403.802 243.389 402.652 242.288 400.75 242.288H386.326L382.388 260.084H401.59V260.04ZM397.254 275.37H379.026L375.398 291.845H392.609L397.254 275.37ZM380.486 322.768C382.477 322.768 384.247 321.446 384.778 319.508L388.273 307.174H372.036L368.585 322.724H380.486V322.768ZM341.95 322.768H352.834L356.285 307.218H341.994V322.768H341.95ZM341.95 291.845H359.647L363.275 275.37H341.95V291.845ZM341.95 260.04H366.638L370.576 242.244H341.95V260.04ZM314.342 322.768H326.509V307.218H311.068L314.342 322.768ZM307.794 291.845H326.509V275.37H304.299L307.794 291.845ZM326.509 260.04V242.244H297.308L301.069 260.04H326.509ZM282.398 319.42C282.885 321.402 284.655 322.812 286.734 322.812H298.591L295.273 307.262H279.346L282.398 319.42ZM275.541 291.845H292.043L288.548 275.37H271.426L275.541 291.845ZM264.568 247.75L267.621 259.996H285.318L281.558 242.2H268.904C267.002 242.2 265.896 243.257 265.409 243.918C264.878 244.579 264.082 245.944 264.568 247.75Z" fill="black"/>
</g>
<defs>
<filter id="filter0_d" x="234" y="185" width="229" height="215" filterUnits="userSpaceOnUse" color-interpolation-filters="sRGB">
<feFlood flood-opacity="0" result="BackgroundImageFix"/>
<feColorMatrix in="SourceAlpha" type="matrix" values="0 0 0 0 0 0 0 0 0 0 0 0 0 0 0 0 0 0 127 0"/>
<feOffset dx="-10" dy="-10"/>
<feGaussianBlur stdDeviation="2.5"/>
<feColorMatrix type="matrix" values="0 0 0 0 1 0 0 0 0 1 0 0 0 0 1 0 0 0 1 0"/>
<feBlend mode="normal" in2="BackgroundImageFix" result="effect1_dropShadow"/>
<feBlend mode="normal" in="SourceGraphic" in2="effect1_dropShadow" result="shape"/>
</filter>
</defs>
</svg>
