<svg width="64" height="40" viewBox="0 0 64 40" fill="none" xmlns="http://www.w3.org/2000/svg">
<path d="M4.98218 8.96716C4.98218 7.85826 6.98957 3.24207 6.98957 3.24207C6.98957 3.24207 8.99707 7.85826 8.99707 8.96716C8.99707 10.0755 8.09817 10.9747 6.98957 10.9747C5.88107 10.9747 4.98218 10.0755 4.98218 8.96716Z" fill="#97A43C"/>
<path d="M7.08998 32.4915C7.01578 32.4915 6.95538 32.4312 6.95538 32.3566V8.46593C6.95538 8.39133 7.01578 8.33093 7.08998 8.33093C7.16478 8.33093 7.22529 8.39133 7.22529 8.46593V32.3566C7.22529 32.4312 7.16478 32.4915 7.08998 32.4915Z" fill="#252E3B"/>
<path d="M2.62881 26.0912C1.84481 25.3074 0 20.624 0 20.624C0 20.624 4.6837 22.4687 5.4677 23.2523C6.25161 24.0364 6.25161 25.3074 5.4677 26.0912C4.6837 26.8753 3.41271 26.8753 2.62881 26.0912Z" fill="#48753A"/>
<path d="M2.62881 17.1929C1.84481 16.4086 0 11.7252 0 11.7252C0 11.7252 4.6837 13.5699 5.4677 14.354C6.25161 15.1376 6.25161 16.4086 5.4677 17.1929C4.6837 17.9765 3.41271 17.9765 2.62881 17.1929Z" fill="#48753A"/>
<path d="M11.9384 26.0912C12.7225 25.3074 14.5672 20.624 14.5672 20.624C14.5672 20.624 9.8836 22.4687 9.0997 23.2523C8.3158 24.0364 8.3158 25.3074 9.0997 26.0912C9.8836 26.8753 11.1546 26.8753 11.9384 26.0912Z" fill="#97A43C"/>
<path d="M11.9384 17.1929C12.7225 16.4086 14.5672 11.7252 14.5672 11.7252C14.5672 11.7252 9.8836 13.5699 9.0997 14.354C8.3158 15.1376 8.3158 16.4086 9.0997 17.1929C9.8836 17.9765 11.1546 17.9765 11.9384 17.1929Z" fill="#48753A"/>
<path d="M3.82557 29.2615H10.5482C10.9165 29.2615 11.198 29.5901 11.1413 29.9545L10.1678 36.2013C10.1221 36.4936 9.87037 36.7088 9.57457 36.7088H4.79937C4.50337 36.7088 4.25178 36.4936 4.20598 36.2013L3.23267 29.9545C3.17577 29.5901 3.45727 29.2615 3.82557 29.2615Z" fill="#F2924B"/>
<path d="M6.98618 19.5942L3.21578 15.2283C3.16718 15.1717 3.17349 15.0867 3.23009 15.0377C3.28559 14.9891 3.37108 14.9951 3.42028 15.0518L7.00078 19.1981L10.9606 15.2378H11.1511V15.4287L6.98618 19.5942Z" fill="#252E3B"/>
<path d="M6.98638 27.9966L3.31787 24.2291L3.32067 24.0382L3.51128 24.0413L7.00048 27.624L11.0632 24.0337C11.119 23.9847 11.2042 23.9898 11.2535 24.0457L11.2417 24.2366L6.98638 27.9966Z" fill="#252E3B"/>
<path d="M7.13538 35.4983L12.8314 30.2242H58.402L63.428 35.4983H7.13538Z" fill="#5FA0FF"/>
<path d="M57.6894 30.8254H12.8735C12.1338 30.8254 11.5343 30.2056 11.5343 29.4408V1.3846C11.5343 0.6197 12.1338 0 12.8735 0H57.6894C58.4293 0 59.0291 0.6197 59.0291 1.3846V29.4408C59.0291 30.2056 58.4293 30.8254 57.6894 30.8254Z" fill="#5FA0FF"/>
<path d="M55.9508 29.6682H14.6124C13.9305 29.6682 13.3772 29.1154 13.3772 28.433V3.39756C13.3772 2.71516 13.9305 2.16235 14.6124 2.16235H55.9508C56.6329 2.16235 57.1861 2.71516 57.1861 3.39756V28.433C57.1861 29.1154 56.6329 29.6682 55.9508 29.6682Z" fill="white"/>
<path d="M35.7844 0.905186C35.7844 1.18279 35.5592 1.40769 35.2815 1.40769C35.0042 1.40769 34.779 1.18279 34.779 0.905186C34.779 0.627486 35.0042 0.402588 35.2815 0.402588C35.5592 0.402588 35.7844 0.627486 35.7844 0.905186Z" fill="#457AC9"/>
<path d="M28.0459 23.0845H37.8663C39.0743 23.0845 40.057 22.102 40.057 20.8939V20.8614C40.057 19.6533 39.0743 18.6707 37.8663 18.6707H28.0459C27.7298 18.6707 27.4731 18.9272 27.4731 19.2435C27.4731 19.5596 27.7298 19.8161 28.0459 19.8161H37.8663C38.4429 19.8161 38.9116 20.2846 38.9116 20.8614V20.8939C38.9116 21.4698 38.4429 21.9392 37.8663 21.9392H28.0459C27.7298 21.9392 27.4731 22.1957 27.4731 22.5118C27.4731 22.8279 27.7298 23.0845 28.0459 23.0845Z" fill="#FF0000"/>
<path d="M38.8671 19.8057C39.0515 19.8057 39.2221 19.6866 39.2777 19.5009L42.2776 9.57788H25.5351L27.4295 19.4572C27.4741 19.6898 27.6997 19.8431 27.9323 19.7985C28.1651 19.7532 28.3175 19.5286 28.2732 19.2951L26.5742 10.4373H41.1204L38.4557 19.2521C38.3873 19.4792 38.5152 19.7193 38.7423 19.7875L38.8671 19.8057Z" fill="#FF0000"/>
<path d="M41.6993 10.4373C41.8756 10.4373 42.041 10.3276 42.1038 10.1522L43.0625 7.46512H45.2293C45.466 7.46512 45.6582 7.27212 45.6582 7.03552C45.6582 6.79802 45.466 6.60571 45.2293 6.60571H42.4564L41.2943 9.86382C41.2148 10.0869 41.3318 10.3324 41.5549 10.4127L41.6993 10.4373Z" fill="#FF0000"/>
<path d="M45.2325 7.75099H47.5574C47.952 7.75099 48.2729 7.43089 48.2729 7.03549C48.2729 6.63989 47.952 6.31909 47.5574 6.31909H45.2325C44.8376 6.31909 44.5167 6.63989 44.5167 7.03549C44.5167 7.43089 44.8376 7.75099 45.2325 7.75099Z" fill="#FF0000"/>
<path d="M36.1626 25.4157C36.1626 26.503 37.0434 27.3847 38.1308 27.3847C39.2181 27.3847 40.0991 26.503 40.0991 25.4157C40.0991 24.3292 39.2181 23.4475 38.1308 23.4475C37.0434 23.4475 36.1626 24.3292 36.1626 25.4157Z" fill="#FF0000"/>
<path d="M26.9045 25.4157C26.9045 26.503 27.7855 27.3847 28.8727 27.3847C29.9602 27.3847 30.841 26.503 30.841 25.4157C30.841 24.3292 29.9602 23.4475 28.8727 23.4475C27.7855 23.4475 26.9045 24.3292 26.9045 25.4157Z" fill="#FF0000"/>
<path d="M37.2126 25.4157C37.2126 25.9232 37.6234 26.3348 38.1308 26.3348C38.6383 26.3348 39.049 25.9232 39.049 25.4157C39.049 24.9089 38.6383 24.4976 38.1308 24.4976C37.6234 24.4976 37.2126 24.9089 37.2126 25.4157Z" fill="white"/>
<path d="M27.8584 25.4157C27.8584 25.9232 28.2698 26.3348 28.7775 26.3348C29.285 26.3348 29.6956 25.9232 29.6956 25.4157C29.6956 24.9089 29.285 24.4976 28.7775 24.4976C28.2698 24.4976 27.8584 24.9089 27.8584 25.4157Z" fill="white"/>
<path d="M36.8909 19.5707C37.0952 19.5707 37.2769 19.423 37.3136 19.214L38.8401 10.4332C38.8806 10.1997 38.7241 9.97735 38.4906 9.93705C38.2571 9.89655 38.0347 10.0529 37.9935 10.2864L36.4668 19.067C36.4262 19.3007 36.5827 19.5238 36.8162 19.5643L36.8909 19.5707Z" fill="#FF0000"/>
<path d="M34.7433 19.3793C34.9673 19.3793 35.1562 19.2052 35.1713 18.9781L35.744 10.2927C35.7591 10.0561 35.5804 9.85116 35.3437 9.83606C35.1071 9.81916 34.902 9.99956 34.8869 10.2364L34.3143 18.9218C34.2984 19.1584 34.478 19.3626 34.7147 19.3784L34.7433 19.3793Z" fill="#FF0000"/>
<path d="M30.2563 19.5707L30.3231 19.565C30.5573 19.5276 30.7178 19.3077 30.6804 19.0742L29.2969 10.2927C29.2604 10.0584 29.0402 9.89872 28.8061 9.93542C28.5717 9.97262 28.4112 10.1928 28.4486 10.4262L29.8323 19.2077C29.8656 19.4189 30.0482 19.5707 30.2563 19.5707Z" fill="#FF0000"/>
<path d="M32.5472 19.3793L32.5685 19.3784C32.8052 19.3664 32.9878 19.1656 32.9761 18.9281L32.5463 10.2434C32.5352 10.0059 32.3301 9.82261 32.0966 9.83521C31.8593 9.84721 31.6774 10.0489 31.6884 10.2855L32.1182 18.9711C32.1293 19.2005 32.3191 19.3793 32.5472 19.3793Z" fill="#FF0000"/>
<path d="M27.0117 13.4619H40.7552C40.9925 13.4619 41.1848 13.2696 41.1848 13.0321C41.1848 12.7948 40.9925 12.6025 40.7552 12.6025H27.0117C26.7743 12.6025 26.5821 12.7948 26.5821 13.0321C26.5821 13.2696 26.7743 13.4619 27.0117 13.4619Z" fill="#FF0000"/>
<path d="M27.4892 16.5159H39.6105C39.8471 16.5159 40.0394 16.3237 40.0394 16.0864C40.0394 15.8488 39.8471 15.6573 39.6105 15.6573H27.4892C27.2517 15.6573 27.0594 15.8488 27.0594 16.0864C27.0594 16.3237 27.2517 16.5159 27.4892 16.5159Z" fill="#FF0000"/>
<path d="M60.5433 39.6938H10.0196C8.42668 39.6938 7.13538 38.4024 7.13538 36.8094V35.4983H63.428V36.8094C63.428 38.4024 62.1366 39.6938 60.5433 39.6938Z" fill="#457AC9"/>
<path d="M25.5644 30.8105C25.5644 31.0881 25.3396 31.3135 25.0619 31.3135H19.3653C19.0877 31.3135 18.8629 31.0881 18.8629 30.8105C18.8629 30.5333 19.0877 30.308 19.3653 30.308H25.0619C25.3396 30.308 25.5644 30.5333 25.5644 30.8105Z" fill="#457AC9"/>
<path d="M52.5379 30.8105C52.5379 31.0881 52.3132 31.3135 52.0355 31.3135H46.339C46.0618 31.3135 45.8365 31.0881 45.8365 30.8105C45.8365 30.5333 46.0618 30.308 46.339 30.308H52.0355C52.3132 30.308 52.5379 30.5333 52.5379 30.8105Z" fill="#457AC9"/>
<path d="M28.6637 34.7439L30.536 33.0107H40.2476L41.8992 34.7439H28.6637Z" fill="#FEFEFE"/>
<path d="M33.8172 32.1135H36.957V31.9456H33.8172V32.1135Z" fill="#FEFEFE"/>
<path d="M10.9051 34.3654H14.4232V34.1979H10.9051V34.3654Z" fill="#FEFEFE"/>
<path d="M13.8802 32.1135H17.0198V31.9456H13.8802V32.1135Z" fill="#FEFEFE"/>
<path d="M12.5397 33.1408H15.6798V32.9728H12.5397V33.1408Z" fill="#FEFEFE"/>
<path d="M19.9954 32.1135H23.1352V31.9456H19.9954V32.1135Z" fill="#FEFEFE"/>
<path d="M18.4037 33.1408H21.5433V32.9728H18.4037V33.1408Z" fill="#FEFEFE"/>
<path d="M22.2138 34.3654H25.7318V34.1979H22.2138V34.3654Z" fill="#FEFEFE"/>
<path d="M25.9427 32.1135H29.083V31.9456H25.9427V32.1135Z" fill="#FEFEFE"/>
<path d="M24.3515 33.1408H27.4913V32.9728H24.3515V33.1408Z" fill="#FEFEFE"/>
<path d="M16.6011 34.6166H20.1197V34.4491H16.6011V34.6166Z" fill="#FEFEFE"/>
<path d="M56.7264 34.3654H60.2448V34.1979H56.7264V34.3654Z" fill="#FEFEFE"/>
<path d="M54.1298 32.1135H57.2696V31.9456H54.1298V32.1135Z" fill="#FEFEFE"/>
<path d="M55.4702 33.1408H58.6098V32.9728H55.4702V33.1408Z" fill="#FEFEFE"/>
<path d="M48.0145 32.1135H51.1541V31.9456H48.0145V32.1135Z" fill="#FEFEFE"/>
<path d="M49.6062 33.1408H52.746V32.9728H49.6062V33.1408Z" fill="#FEFEFE"/>
<path d="M45.4177 34.3654H48.9362V34.1979H45.4177V34.3654Z" fill="#FEFEFE"/>
<path d="M42.0672 32.1135H45.207V31.9456H42.0672V32.1135Z" fill="#FEFEFE"/>
<path d="M43.6584 33.1408H46.7983V32.9728H43.6584V33.1408Z" fill="#FEFEFE"/>
<path d="M51.0304 34.6166H54.5485V34.4491H51.0304V34.6166Z" fill="#FEFEFE"/>
</svg>
