<svg width="435" height="435" viewBox="0 0 435 435" fill="none" xmlns="http://www.w3.org/2000/svg">
<path d="M365.354 271.9C349.654 256.4 330.054 256.4 314.454 271.9C302.554 283.7 290.654 295.5 278.954 307.5C275.754 310.8 273.054 311.5 269.154 309.3C261.454 305.1 253.254 301.7 245.854 297.1C211.354 275.4 182.454 247.5 156.854 216.1C144.154 200.5 132.854 183.8 124.954 165C123.354 161.2 123.654 158.7 126.754 155.6C138.654 144.1 150.254 132.3 161.954 120.5C178.254 104.1 178.254 84.9 161.854 68.4C152.554 59 143.254 49.8 133.954 40.4C124.354 30.8 114.854 21.1 105.154 11.6C89.454 -3.69999 69.854 -3.69999 54.254 11.7C42.254 23.5 30.754 35.6 18.554 47.2C7.254 57.9 1.554 71 0.354 86.3C-1.546 111.2 4.554 134.7 13.154 157.6C30.754 205 57.554 247.1 90.054 285.7C133.954 337.9 186.354 379.2 247.654 409C275.254 422.4 303.854 432.7 334.954 434.4C356.354 435.6 374.954 430.2 389.854 413.5C400.054 402.1 411.554 391.7 422.354 380.8C438.354 364.6 438.454 345 422.554 329C403.554 309.9 384.454 290.9 365.354 271.9Z" fill="black"/>
</svg>
