<svg width="63" height="48" viewBox="0 0 63 48" fill="none" xmlns="http://www.w3.org/2000/svg">
<path fill-rule="evenodd" clip-rule="evenodd" d="M40.1503 22.7128C37.1533 19.6595 37.1989 14.7545 40.2524 11.7575C43.3061 8.7602 48.211 8.80609 51.208 11.8595C54.2052 14.913 54.1593 19.8181 51.1059 22.8149C48.0524 25.8119 43.1476 25.7662 40.1503 22.7128ZM58.4363 24.9543C59.1587 23.7545 59.6961 22.4736 60.0501 21.1538L62.9065 20.6065L62.9361 17.4472L62.9654 14.2876L60.1197 13.6872C59.7904 12.3609 59.2769 11.0705 58.5771 9.8572L60.2087 7.4525L57.9952 5.1975L55.7821 2.9426L53.3471 4.52909C52.1473 3.80669 50.8667 3.26929 49.5469 2.91529L48.9994 0.0588965L45.84 0.0292969L42.6806 0L42.0801 2.8456C40.7538 3.1751 39.4635 3.68849 38.2503 4.38829L35.8453 2.7568L33.5904 4.97L31.3357 7.18329L32.9222 9.61829C32.1996 10.8181 31.6621 12.0985 31.3084 13.4185L28.4518 13.966L28.4225 17.1254L28.3929 20.2847L31.2387 20.8851C31.5679 22.2114 32.0816 23.5019 32.7813 24.7151L31.1498 27.1199L33.3629 29.3748L35.5761 31.6299L38.0112 30.0434C39.2112 30.7656 40.4916 31.3032 41.8116 31.6572L42.3589 34.5137L45.5185 34.543L48.6778 34.5725L49.2782 31.7264C50.6045 31.3975 51.895 30.884 53.108 30.184L55.5127 31.8158L57.7679 29.6025L60.0228 27.3892L58.4363 24.9543Z" fill="url(#paint0_linear)"/>
<path d="M36.5794 33.3394L36.5789 33.3396C36.5059 33.3662 36.428 33.3824 36.3469 33.3869C36.3288 33.3877 36.3107 33.3879 36.2925 33.3879C36.2159 33.3869 36.142 33.3747 36.0719 33.3537C35.975 33.3248 35.8856 33.2789 35.8077 33.2185C35.7793 33.1968 35.7526 33.1723 35.7273 33.147C35.5809 32.9983 35.4911 32.7937 35.4942 32.5686C35.4949 32.51 35.5023 32.4531 35.515 32.398C35.5211 32.3713 35.5278 32.3452 35.5365 32.3196C35.646 31.9962 35.9537 31.7654 36.3133 31.7701C36.5717 31.7733 36.8006 31.8977 36.9459 32.0881C37.0523 32.2274 37.1143 32.4012 37.1121 32.5894C37.1076 32.9354 36.8866 33.2279 36.5794 33.3394ZM37.1652 31.9298C36.971 31.6725 36.6642 31.5043 36.3169 31.5003C35.8373 31.4938 35.4266 31.8017 35.2808 32.2329C35.2454 32.3373 35.2258 32.4488 35.2242 32.565C35.2224 32.7005 35.2461 32.8302 35.29 32.9502C35.3601 33.1423 35.4835 33.3089 35.6422 33.4321C35.8003 33.5546 35.9931 33.6343 36.204 33.6533C36.232 33.6555 36.2605 33.6576 36.2892 33.6578C36.3071 33.658 36.325 33.6573 36.3427 33.6567C36.3487 33.6564 36.3552 33.6567 36.3615 33.6564C36.4696 33.6507 36.5738 33.6287 36.6716 33.5933C37.0812 33.4446 37.3758 33.0546 37.3821 32.5928C37.3852 32.3442 37.304 32.1142 37.1652 31.9298Z" fill="#4DA8F2"/>
<path d="M0 47.5033H59.7794V46.4105H0V47.5033Z" fill="#FFC955"/>
<path d="M26.588 12.8191C26.588 12.8191 21.2555 17.8935 23.8494 21.8444C26.4436 25.7956 27.6575 22.3348 27.6575 22.3348C27.6575 22.3348 29.412 22.8644 26.8079 17.9929C25.5806 15.6967 26.588 12.8191 26.588 12.8191Z" fill="#BBD070"/>
<path d="M16.7282 7.3175C16.7282 7.3175 12.6547 12.1045 18.1008 18.7339C23.5469 25.3631 22.7027 28.8674 22.7027 28.8674C22.7027 28.8674 30.2839 17.3417 16.7282 7.3175Z" fill="#97A43C"/>
<path d="M23.9307 26.8661C26.4651 27.3784 24.4144 20.0093 20.6139 17.7627C16.8135 15.5158 13.4134 15.2968 11.2845 13.1332C11.2845 13.1332 11.4505 24.3423 23.9307 26.8661Z" fill="#48753A"/>
<path d="M34.9256 14.2654C34.9256 14.2654 37.4907 6.74308 32.5959 4.41108C27.7009 2.07888 23.5451 5.45009 22.76 7.27419C21.9749 9.09829 22.1827 12.4151 22.8523 14.728C23.5218 17.0407 23.4244 20.5618 21.9698 21.7393C20.5152 22.9168 18.7117 24.8725 18.8008 28.8535C18.8563 31.3232 28.5194 22.5359 28.5194 22.5359L34.9256 14.2654Z" fill="#252E3B"/>
<path d="M28.048 23.2135C28.048 23.2135 24.0248 24.1051 22.4277 25.0384C20.8311 25.9715 17.2848 30.2644 17.2848 32.1103C17.2848 33.956 32.7932 35.6803 32.7932 35.6803L35.7327 46.4119C35.7327 46.4119 43.5714 44.4991 44.5045 42.9127C45.4379 41.3261 41.5274 29.9563 40.8581 27.6553C40.1754 25.3078 37.3658 23.6712 34.0996 23.2135C30.8334 22.756 28.048 23.2135 28.048 23.2135Z" fill="#FFD255"/>
<path d="M33.8206 23.1765C33.8206 23.1765 33.7304 28.0664 29.8522 28.2115C25.974 28.3563 26.7815 23.5214 26.7815 23.5214C26.7815 23.5214 29.6179 22.3722 33.8206 23.1765Z" fill="#EEA886"/>
<path d="M35.4613 8.42065C35.4613 8.42065 36.8331 16.2854 32.9264 21.9666C28.8806 27.8505 35.4613 8.42065 35.4613 8.42065Z" fill="#252E3B"/>
<path d="M32.9885 19.7191C32.9885 19.7191 32.7187 22.058 33.169 23.5128C33.6193 24.9675 27.2394 25.0075 27.2428 23.8116C27.247 22.4528 27.8955 21.3177 27.2847 18.9887C26.6736 16.6596 32.9885 19.7191 32.9885 19.7191Z" fill="#EEA886"/>
<path d="M28.0396 20.0173C28.0396 20.0173 30.0539 22.1159 32.6298 20.2363C32.6298 20.2363 32.4172 21.5776 30.5644 21.7507C28.7118 21.924 28.0396 20.0173 28.0396 20.0173Z" fill="#A77860"/>
<path d="M30.5623 5.69381C30.5623 5.69381 35.653 7.20031 34.9256 14.2654C34.1984 21.3302 30.8737 20.9664 30.5623 21.0186C30.2503 21.0702 26.3023 21.3302 25.0557 12.7588C23.8089 4.18741 30.5623 5.69381 30.5623 5.69381Z" fill="#EEA886"/>
<path d="M29.2478 8.84423C29.2478 8.84423 32.0142 13.2446 34.9256 14.2654C34.9256 14.2654 36.5156 6.88173 29.9493 5.33463C23.3834 3.78773 24.4119 12.7924 24.9019 15.1935C24.9019 15.1935 26.2696 11.6609 29.2478 8.84423Z" fill="#252E3B"/>
<path d="M25.5376 8.18134C25.5376 8.18134 26.9938 5.36154 29.4525 5.23544C31.9114 5.10954 33.3736 7.24244 33.3736 7.24244C33.3736 7.24244 32.4137 4.84094 29.4556 4.84094C26.4976 4.84094 25.5376 8.18134 25.5376 8.18134Z" fill="#88C0FF"/>
<path d="M35.5478 30.3601L37.2743 46.4105H14.5514L12.825 30.3601H35.5478Z" fill="#5FA0FF"/>
<path d="M13.9831 45.662H36.5066L34.8016 29.8092H12.2779L13.9831 45.662ZM36.7274 45.8597H13.8053L12.0575 29.611H34.9796L36.7274 45.8597Z" fill="#5FA0FF"/>
<path d="M26.4593 38.1257C26.6632 39.1242 26.1975 40.063 25.4189 40.2222C24.6403 40.3812 23.8438 39.7008 23.6398 38.7023C23.4356 37.7036 23.9014 36.7651 24.68 36.6059C25.4587 36.4469 26.255 37.1272 26.4593 38.1257Z" fill="#5189DB"/>
<path d="M35.1261 46.4105H39.3663V44.7972H35.1261V46.4105Z" fill="#5FA0FF"/>
<defs>
<linearGradient id="paint0_linear" x1="28.3928" y1="17.2862" x2="62.9654" y2="17.2862" gradientUnits="userSpaceOnUse">
<stop stop-color="#96CBFF"/>
<stop offset="1" stop-color="#5599FF"/>
</linearGradient>
</defs>
</svg>
